Bodoni-48-Book.ufo
<glyph name="exclam" format="2">
  <advance width="630"/>
  <unicode hex="0021"/>
  <outline>
    <contour>
      <point x="431" y="1318" type="curve" smooth="yes"/>
      <point x="409" y="966"/>
      <point x="318" y="716"/>
      <point x="318" y="416" type="curve"/>
      <point x="310" y="416" type="line"/>
      <point x="310" y="716"/>
      <point x="218" y="966"/>
      <point x="196" y="1318" type="curve" smooth="yes"/>
      <point x="196" y="1332"/>
      <point x="196" y="1344"/>
      <point x="196" y="1356" type="curve" smooth="yes"/>
      <point x="196" y="1448"/>
      <point x="220" y="1516"/>
      <point x="314" y="1516" type="curve" smooth="yes"/>
      <point x="408" y="1516"/>
      <point x="434" y="1448"/>
      <point x="434" y="1356" type="curve" smooth="yes"/>
      <point x="434" y="1344"/>
      <point x="431" y="1332"/>
    </contour>
    <component base="period" xOffset="116"/>
  </outline>
</glyph>
<glyph name="dollar" format="2">
  <advance width="1109"/>
  <unicode hex="0024"/>
  <outline>
    <contour>
      <point x="633" y="1660" type="line"/>
      <point x="642" y="1660" type="line"/>
      <point x="642" y="-160" type="line"/>
      <point x="633" y="-160" type="line"/>
    </contour>
    <contour>
      <point x="457" y="1660" type="line"/>
      <point x="466" y="1660" type="line"/>
      <point x="466" y="-160" type="line"/>
      <point x="457" y="-160" type="line"/>
    </contour>
    <contour>
      <point x="982" y="1222" type="curve"/>
      <point x="974" y="1374"/>
      <point x="816" y="1511"/>
      <point x="593" y="1511" type="curve" smooth="yes"/>
      <point x="381" y="1511"/>
      <point x="260" y="1368"/>
      <point x="260" y="1210" type="curve" smooth="yes"/>
      <point x="260" y="840"/>
      <point x="1030" y="960"/>
      <point x="1030" y="420" type="curve" smooth="yes"/>
      <point x="1030" y="140"/>
      <point x="833" y="-30"/>
      <point x="551" y="-30" type="curve" smooth="yes"/>
      <point x="201" y="-30"/>
      <point x="60" y="160"/>
      <point x="60" y="290" type="curve" smooth="yes"/>
      <point x="60" y="382"/>
      <point x="112" y="454"/>
      <point x="200" y="454" type="curve" smooth="yes"/>
      <point x="260" y="454"/>
      <point x="328" y="410"/>
      <point x="328" y="322" type="curve" smooth="yes"/>
      <point x="328" y="242"/>
      <point x="262" y="192"/>
      <point x="194" y="192" type="curve" smooth="yes"/>
      <point x="140" y="192"/>
      <point x="91" y="229"/>
      <point x="73" y="259" type="curve"/>
      <point x="89" y="155"/>
      <point x="213" y="-22"/>
      <point x="550" y="-22" type="curve" smooth="yes"/>
      <point x="762" y="-22"/>
      <point x="890" y="132"/>
      <point x="890" y="330" type="curve" smooth="yes"/>
      <point x="890" y="740"/>
      <point x="120" y="610"/>
      <point x="120" y="1130" type="curve" smooth="yes"/>
      <point x="120" y="1370"/>
      <point x="350" y="1520"/>
      <point x="592" y="1520" type="curve" smooth="yes"/>
      <point x="827" y="1520"/>
      <point x="990" y="1372"/>
      <point x="990" y="1210" type="curve" smooth="yes"/>
      <point x="990" y="1118"/>
      <point x="938" y="1046"/>
      <point x="850" y="1046" type="curve" smooth="yes"/>
      <point x="790" y="1046"/>
      <point x="722" y="1090"/>
      <point x="722" y="1178" type="curve" smooth="yes"/>
      <point x="722" y="1258"/>
      <point x="788" y="1308"/>
      <point x="856" y="1308" type="curve" smooth="yes"/>
      <point x="914" y="1308"/>
      <point x="968" y="1264"/>
    </contour>
  </outline>
</glyph>
<glyph name="ampersand" format="2">
  <advance width="1607"/>
  <unicode hex="0026"/>
  <outline>
    <contour>
      <point x="691" y="878" type="curve"/>
      <point x="688" y="884" type="line"/>
      <point x="784" y="943"/>
      <point x="902" y="1056"/>
      <point x="902" y="1260" type="curve" smooth="yes"/>
      <point x="902" y="1354"/>
      <point x="868" y="1511"/>
      <point x="718" y="1511" type="curve" smooth="yes"/>
      <point x="564" y="1511"/>
      <point x="512" y="1386"/>
      <point x="512" y="1280" type="curve" smooth="yes"/>
      <point x="512" y="1210"/>
      <point x="562" y="1108"/>
      <point x="648" y="980" type="curve" smooth="yes"/>
      <point x="1281" y="9" type="line"/>
      <point x="1538" y="9" type="line"/>
      <point x="1538" y="0" type="line"/>
      <point x="1070" y="0" type="line"/>
      <point x="408" y="980" type="line" smooth="yes"/>
      <point x="356" y="1056"/>
      <point x="316" y="1156"/>
      <point x="316" y="1226" type="curve" smooth="yes"/>
      <point x="316" y="1406"/>
      <point x="486" y="1520"/>
      <point x="718" y="1520" type="curve" smooth="yes"/>
      <point x="932" y="1520"/>
      <point x="1095" y="1415"/>
      <point x="1095" y="1255" type="curve" smooth="yes"/>
      <point x="1095" y="1038"/>
      <point x="902" y="987"/>
    </contour>
    <contour>
      <point x="559" y="805" type="curve"/>
      <point x="561" y="800" type="line"/>
      <point x="390" y="708"/>
      <point x="300" y="575"/>
      <point x="300" y="355" type="curve" smooth="yes"/>
      <point x="300" y="195"/>
      <point x="430" y="19"/>
      <point x="618" y="19" type="curve" smooth="yes"/>
      <point x="1015" y="19"/>
      <point x="1313" y="496"/>
      <point x="1350" y="918" type="curve"/>
      <point x="1359" y="918" type="line"/>
      <point x="1317" y="472"/>
      <point x="1004" y="-20"/>
      <point x="538" y="-20" type="curve" smooth="yes"/>
      <point x="272" y="-20"/>
      <point x="80" y="114"/>
      <point x="80" y="345" type="curve" smooth="yes"/>
      <point x="80" y="636"/>
      <point x="483" y="768"/>
    </contour>
    <contour>
      <point x="1088" y="920" type="line"/>
      <point x="1568" y="920" type="line"/>
      <point x="1568" y="911" type="line"/>
      <point x="1088" y="911" type="line"/>
    </contour>
  </outline>
</glyph>
<glyph name="parenleft" format="2">
  <advance width="723"/>
  <unicode hex="0028"/>
  <outline>
    <contour>
      <point x="690" y="-332" type="curve"/>
      <point x="686" y="-340" type="line"/>
      <point x="360" y="-200"/>
      <point x="130" y="184"/>
      <point x="130" y="650" type="curve" smooth="yes"/>
      <point x="130" y="1116"/>
      <point x="360" y="1460"/>
      <point x="686" y="1600" type="curve"/>
      <point x="690" y="1592" type="line"/>
      <point x="442" y="1432"/>
      <point x="320" y="1034"/>
      <point x="320" y="650" type="curve" smooth="yes"/>
      <point x="320" y="266"/>
      <point x="442" y="-172"/>
    </contour>
  </outline>
</glyph>
<glyph name="comma" format="2">
  <advance width="429"/>
  <unicode hex="002C"/>
  <outline>
    <contour>
      <point x="80" y="98" type="curve" smooth="yes"/>
      <point x="80" y="164"/>
      <point x="138" y="216"/>
      <point x="214" y="216" type="curve" smooth="yes"/>
      <point x="292" y="216"/>
      <point x="354" y="154"/>
      <point x="354" y="8" type="curve" smooth="yes"/>
      <point x="354" y="-132"/>
      <point x="256" y="-295"/>
      <point x="76" y="-295" type="curve"/>
      <point x="76" y="-286" type="line"/>
      <point x="250" y="-286"/>
      <point x="380" y="-114"/>
      <point x="335" y="96" type="curve"/>
      <point x="324" y="35"/>
      <point x="276" y="-20"/>
      <point x="205" y="-20" type="curve" smooth="yes"/>
      <point x="121" y="-20"/>
      <point x="80" y="32"/>
    </contour>
  </outline>
</glyph>
<glyph name="slash" format="2">
  <advance width="2132"/>
  <unicode hex="002F"/>
  <outline>
    <contour>
      <point x="1952" y="3195" type="line"/>
      <point x="1971" y="3195" type="line"/>
      <point x="183" y="-614" type="line"/>
      <point x="164" y="-614" type="line"/>
    </contour>
  </outline>
</glyph>
<glyph name="two" format="2">
  <advance width="1099"/>
  <unicode hex="0032"/>
  <outline>
    <contour>
      <point x="1030" y="0" type="line"/>
      <point x="80" y="0" type="line"/>
      <point x="80" y="130" type="line"/>
      <point x="519" y="556" type="line" smooth="yes"/>
      <point x="700" y="731"/>
      <point x="788" y="912"/>
      <point x="788" y="1100" type="curve" smooth="yes"/>
      <point x="788" y="1327"/>
      <point x="700" y="1499"/>
      <point x="487" y="1499" type="curve" smooth="yes"/>
      <point x="270" y="1499"/>
      <point x="99" y="1317"/>
      <point x="116" y="1080" type="curve"/>
      <point x="132" y="1123"/>
      <point x="169" y="1164"/>
      <point x="238" y="1164" type="curve" smooth="yes"/>
      <point x="296" y="1164"/>
      <point x="356" y="1122"/>
      <point x="356" y="1052" type="curve" smooth="yes"/>
      <point x="356" y="972"/>
      <point x="300" y="924"/>
      <point x="230" y="924" type="curve" smooth="yes"/>
      <point x="160" y="924"/>
      <point x="102" y="974"/>
      <point x="102" y="1097" type="curve" smooth="yes"/>
      <point x="102" y="1331"/>
      <point x="256" y="1520"/>
      <point x="550" y="1520" type="curve" smooth="yes"/>
      <point x="832" y="1520"/>
      <point x="988" y="1340"/>
      <point x="988" y="1140" type="curve" smooth="yes"/>
      <point x="988" y="940"/>
      <point x="817" y="832"/>
      <point x="709" y="726" type="curve" smooth="yes"/>
      <point x="146" y="180" type="line"/>
      <point x="1021" y="180" type="line"/>
      <point x="1021" y="330" type="line"/>
      <point x="1030" y="330" type="line"/>
    </contour>
  </outline>
</glyph>
<glyph name="three" format="2">
  <advance width="1039"/>
  <unicode hex="0033"/>
  <outline>
    <contour>
      <point x="959" y="400" type="curve" smooth="yes"/>
      <point x="959" y="140"/>
      <point x="741" y="-20"/>
      <point x="459" y="-20" type="curve" smooth="yes"/>
      <point x="175" y="-20"/>
      <point x="47" y="128"/>
      <point x="47" y="272" type="curve" smooth="yes"/>
      <point x="47" y="354"/>
      <point x="97" y="402"/>
      <point x="167" y="402" type="curve" smooth="yes"/>
      <point x="227" y="402"/>
      <point x="276" y="362"/>
      <point x="276" y="290" type="curve" smooth="yes"/>
      <point x="276" y="226"/>
      <point x="220" y="180"/>
      <point x="162" y="180" type="curve" smooth="yes"/>
      <point x="105" y="180"/>
      <point x="69" y="215"/>
      <point x="60" y="253" type="curve"/>
      <point x="66" y="125"/>
      <point x="189" y="-5"/>
      <point x="438" y="-5" type="curve" smooth="yes"/>
      <point x="676" y="-5"/>
      <point x="757" y="212"/>
      <point x="757" y="400" type="curve" smooth="yes"/>
      <point x="757" y="548"/>
      <point x="702" y="806"/>
      <point x="364" y="806" type="curve"/>
      <point x="364" y="812" type="line"/>
      <point x="846" y="812"/>
      <point x="959" y="620"/>
    </contour>
    <contour>
      <point x="364" y="807" type="curve"/>
      <point x="364" y="814" type="line"/>
      <point x="682" y="814"/>
      <point x="698" y="1054"/>
      <point x="698" y="1182" type="curve" smooth="yes"/>
      <point x="698" y="1330"/>
      <point x="626" y="1507"/>
      <point x="468" y="1507" type="curve" smooth="yes"/>
      <point x="313" y="1507"/>
      <point x="150" y="1415"/>
      <point x="121" y="1274" type="curve"/>
      <point x="143" y="1316"/>
      <point x="182" y="1338"/>
      <point x="221" y="1338" type="curve" smooth="yes"/>
      <point x="279" y="1338"/>
      <point x="335" y="1298"/>
      <point x="335" y="1228" type="curve" smooth="yes"/>
      <point x="335" y="1148"/>
      <point x="271" y="1117"/>
      <point x="221" y="1117" type="curve" smooth="yes"/>
      <point x="161" y="1117"/>
      <point x="108" y="1159"/>
      <point x="108" y="1241" type="curve" smooth="yes"/>
      <point x="108" y="1385"/>
      <point x="276" y="1518"/>
      <point x="480" y="1518" type="curve" smooth="yes"/>
      <point x="702" y="1518"/>
      <point x="900" y="1402"/>
      <point x="900" y="1182" type="curve" smooth="yes"/>
      <point x="900" y="982"/>
      <point x="826" y="807"/>
    </contour>
  </outline>
</glyph>
<glyph name="four" format="2">
  <advance width="1189"/>
  <unicode hex="0034"/>
  <outline>
    <contour>
      <point x="1100" y="9" type="line"/>
      <point x="1100" y="0" type="line"/>
      <point x="570" y="0" type="line"/>
      <point x="570" y="9" type="line"/>
      <point x="760" y="9" type="line"/>
      <point x="760" y="1438" type="line"/>
      <point x="87" y="435" type="line"/>
      <point x="1170" y="435" type="line"/>
      <point x="1170" y="425" type="line"/>
      <point x="69" y="425" type="line"/>
      <point x="790" y="1500" type="line"/>
      <point x="950" y="1500" type="line"/>
      <point x="950" y="9" type="line"/>
    </contour>
  </outline>
</glyph>
<glyph name="five" format="2">
  <advance width="1000"/>
  <unicode hex="0035"/>
  <outline>
    <contour>
      <point x="870" y="1320" type="line"/>
      <point x="143" y="1320" type="line"/>
      <point x="143" y="754" type="line"/>
      <point x="134" y="754" type="line"/>
      <point x="134" y="1500" type="line"/>
      <point x="861" y="1500" type="line"/>
      <point x="861" y="1610" type="line"/>
      <point x="870" y="1610" type="line"/>
    </contour>
    <contour>
      <point x="76" y="220" type="curve"/>
      <point x="93" y="102"/>
      <point x="247" y="-7"/>
      <point x="412" y="-7" type="curve" smooth="yes"/>
      <point x="670" y="-7"/>
      <point x="730" y="272"/>
      <point x="730" y="460" type="curve" smooth="yes"/>
      <point x="730" y="688"/>
      <point x="639" y="922"/>
      <point x="461" y="922" type="curve" smooth="yes"/>
      <point x="293" y="922"/>
      <point x="176" y="819"/>
      <point x="146" y="754" type="curve"/>
      <point x="137" y="754" type="line"/>
      <point x="169" y="828"/>
      <point x="302" y="940"/>
      <point x="504" y="940" type="curve" smooth="yes"/>
      <point x="766" y="940"/>
      <point x="940" y="760"/>
      <point x="940" y="460" type="curve" smooth="yes"/>
      <point x="940" y="200"/>
      <point x="734" y="-20"/>
      <point x="432" y="-20" type="curve" smooth="yes"/>
      <point x="228" y="-20"/>
      <point x="60" y="114"/>
      <point x="60" y="258" type="curve" smooth="yes"/>
      <point x="60" y="340"/>
      <point x="114" y="382"/>
      <point x="174" y="382" type="curve" smooth="yes"/>
      <point x="224" y="382"/>
      <point x="288" y="350"/>
      <point x="288" y="270" type="curve" smooth="yes"/>
      <point x="288" y="200"/>
      <point x="232" y="160"/>
      <point x="174" y="160" type="curve" smooth="yes"/>
      <point x="127" y="160"/>
      <point x="88" y="192"/>
    </contour>
  </outline>
</glyph>
<glyph name="six" format="2">
  <advance width="1119"/>
  <unicode hex="0036"/>
  <outline>
    <contour>
      <point x="860" y="500" type="curve" smooth="yes"/>
      <point x="860" y="768"/>
      <point x="756" y="960"/>
      <point x="578" y="960" type="curve" smooth="yes"/>
      <point x="373" y="960"/>
      <point x="300" y="780"/>
      <point x="300" y="560" type="curve"/>
      <point x="292" y="560" type="line"/>
      <point x="292" y="794"/>
      <point x="360" y="980"/>
      <point x="622" y="980" type="curve" smooth="yes"/>
      <point x="824" y="980"/>
      <point x="1060" y="840"/>
      <point x="1060" y="500" type="curve" smooth="yes"/>
      <point x="1060" y="200"/>
      <point x="890" y="-20"/>
      <point x="588" y="-20" type="curve" smooth="yes"/>
      <point x="286" y="-20"/>
      <point x="100" y="200"/>
      <point x="100" y="620" type="curve" smooth="yes"/>
      <point x="100" y="1106"/>
      <point x="464" y="1520"/>
      <point x="910" y="1520" type="curve"/>
      <point x="910" y="1511" type="line"/>
      <point x="562" y="1511"/>
      <point x="300" y="1112"/>
      <point x="300" y="657" type="curve"/>
      <point x="300" y="560" type="line"/>
      <point x="300" y="292"/>
      <point x="376" y="-10"/>
      <point x="594" y="-10" type="curve" smooth="yes"/>
      <point x="812" y="-10"/>
      <point x="860" y="272"/>
    </contour>
  </outline>
</glyph>
<glyph name="seven" format="2">
  <advance width="1009"/>
  <unicode hex="0037"/>
  <outline>
    <contour>
      <point x="336" y="152" type="curve" smooth="yes"/>
      <point x="336" y="310"/>
      <point x="492" y="518"/>
      <point x="604" y="736" type="curve" smooth="yes"/>
      <point x="682" y="886"/>
      <point x="803" y="1136"/>
      <point x="885" y="1310" type="curve"/>
      <point x="89" y="1310" type="line"/>
      <point x="89" y="1160" type="line"/>
      <point x="80" y="1160" type="line"/>
      <point x="80" y="1500" type="line"/>
      <point x="990" y="1500" type="line"/>
      <point x="990" y="1500"/>
      <point x="754" y="1011"/>
      <point x="615" y="733" type="curve" smooth="yes"/>
      <point x="522" y="546"/>
      <point x="474" y="489"/>
      <point x="474" y="401" type="curve" smooth="yes"/>
      <point x="474" y="255"/>
      <point x="596" y="225"/>
      <point x="596" y="116" type="curve" smooth="yes"/>
      <point x="596" y="42"/>
      <point x="556" y="-20"/>
      <point x="468" y="-20" type="curve" smooth="yes"/>
      <point x="390" y="-20"/>
      <point x="336" y="32"/>
    </contour>
  </outline>
</glyph>
<glyph name="question" format="2">
  <advance width="2252"/>
  <unicode hex="003F"/>
  <outline>
    <contour>
      <point x="1002" y="1431" type="line"/>
      <point x="1440" y="1520"/>
      <point x="1634" y="1913"/>
      <point x="1634" y="2294" type="curve" smooth="yes"/>
      <point x="1634" y="2679"/>
      <point x="1556" y="3090"/>
      <point x="1069" y="3090" type="curve" smooth="yes"/>
      <point x="616" y="3090"/>
      <point x="298" y="2731"/>
      <point x="274" y="2495" type="curve"/>
      <point x="292" y="2549"/>
      <point x="364" y="2621"/>
      <point x="481" y="2621" type="curve" smooth="yes"/>
      <point x="600" y="2621"/>
      <point x="713" y="2539"/>
      <point x="713" y="2396" type="curve" smooth="yes"/>
      <point x="713" y="2232"/>
      <point x="581" y="2167"/>
      <point x="479" y="2167" type="curve" smooth="yes"/>
      <point x="356" y="2167"/>
      <point x="246" y="2253"/>
      <point x="246" y="2421" type="curve" smooth="yes"/>
      <point x="246" y="2757"/>
      <point x="631" y="3113"/>
      <point x="1090" y="3113" type="curve" smooth="yes"/>
      <point x="1668" y="3113"/>
      <point x="2048" y="2786"/>
      <point x="2048" y="2294" type="curve" smooth="yes"/>
      <point x="2048" y="1823"/>
      <point x="1600" y="1455"/>
      <point x="1022" y="1418" type="curve"/>
      <point x="1022" y="856" type="line"/>
      <point x="1002" y="856" type="line"/>
    </contour>
    <component base="period" xOffset="610"/>
  </outline>
</glyph>
<glyph name="at" format="2">
  <advance width="2019"/>
  <unicode hex="0040"/>
  <outline>
    <contour>
      <point x="1232" y="695" type="curve" smooth="yes"/>
      <point x="1232" y="405"/>
      <point x="1068" y="140"/>
      <point x="868" y="140" type="curve" smooth="yes"/>
      <point x="710" y="140"/>
      <point x="568" y="252"/>
      <point x="568" y="460" type="curve" smooth="yes"/>
      <point x="568" y="760"/>
      <point x="798" y="1058"/>
      <point x="1036" y="1058" type="curve" smooth="yes"/>
      <point x="1198" y="1058"/>
      <point x="1232" y="859"/>
    </contour>
    <contour>
      <point x="1224" y="692" type="curve" smooth="yes"/>
      <point x="1224" y="776"/>
      <point x="1217" y="1042"/>
      <point x="1051" y="1042" type="curve" smooth="yes"/>
      <point x="903" y="1042"/>
      <point x="770" y="694"/>
      <point x="770" y="446" type="curve" smooth="yes"/>
      <point x="770" y="312"/>
      <point x="800" y="157"/>
      <point x="894" y="157" type="curve" smooth="yes"/>
      <point x="1063" y="157"/>
      <point x="1224" y="419"/>
    </contour>
    <contour>
      <point x="1180" y="420" type="curve" smooth="yes"/>
      <point x="1324" y="1040" type="line"/>
      <point x="1504" y="1040" type="line"/>
      <point x="1360" y="420" type="line" smooth="yes"/>
      <point x="1354" y="394"/>
      <point x="1263" y="153"/>
      <point x="1417" y="153" type="curve" smooth="yes"/>
      <point x="1708" y="153"/>
      <point x="1901" y="485"/>
      <point x="1901" y="802" type="curve" smooth="yes"/>
      <point x="1901" y="1163"/>
      <point x="1671" y="1571"/>
      <point x="1169" y="1571" type="curve" smooth="yes"/>
      <point x="591" y="1571"/>
      <point x="120" y="1043"/>
      <point x="120" y="422" type="curve" smooth="yes"/>
      <point x="120" y="-200"/>
      <point x="478" y="-418"/>
      <point x="838" y="-418" type="curve" smooth="yes"/>
      <point x="1163" y="-418"/>
      <point x="1394" y="-317"/>
      <point x="1562" y="-122" type="curve"/>
      <point x="1570" y="-128" type="line"/>
      <point x="1402" y="-324"/>
      <point x="1164" y="-428"/>
      <point x="838" y="-428" type="curve" smooth="yes"/>
      <point x="472" y="-428"/>
      <point x="110" y="-207"/>
      <point x="110" y="422" type="curve" smooth="yes"/>
      <point x="110" y="1048"/>
      <point x="584" y="1580"/>
      <point x="1170" y="1580" type="curve" smooth="yes"/>
      <point x="1676" y="1580"/>
      <point x="1910" y="1168"/>
      <point x="1910" y="802" type="curve" smooth="yes"/>
      <point x="1910" y="482"/>
      <point x="1724" y="136"/>
      <point x="1382" y="136" type="curve" smooth="yes"/>
      <point x="1204" y="136"/>
      <point x="1152" y="296"/>
    </contour>
  </outline>
</glyph>
<glyph name="A" format="2">
  <advance width="3038"/>
  <unicode hex="0041"/>
  <outline>
    <contour>
      <point x="83" y="19" type="line"/>
      <point x="985" y="19" type="line"/>
      <point x="985" y="0" type="line"/>
      <point x="83" y="0" type="line"/>
    </contour>
    <contour>
      <point x="1768" y="19" type="line"/>
      <point x="2956" y="19" type="line"/>
      <point x="2956" y="0" type="line"/>
      <point x="1768" y="0" type="line"/>
    </contour>
    <contour>
      <point x="830" y="1010" type="line"/>
      <point x="2136" y="1010" type="line"/>
      <point x="2136" y="991" type="line"/>
      <point x="830" y="991" type="line"/>
    </contour>
    <contour>
      <point x="1390" y="2572" type="line"/>
      <point x="490" y="0" type="line"/>
      <point x="470" y="0" type="line"/>
      <point x="1563" y="3133" type="line"/>
      <point x="1582" y="3133" type="line"/>
      <point x="2668" y="0" type="line"/>
      <point x="2218" y="0" type="line"/>
    </contour>
  </outline>
</glyph>
<glyph name="B" format="2">
  <advance width="1266"/>
  <unicode hex="0042"/>
  <outline>
    <contour>
      <point x="621" y="767" type="curve" smooth="yes"/>
      <point x="401" y="767" type="line"/>
      <point x="401" y="775" type="line"/>
      <point x="621" y="775" type="line" smooth="yes"/>
      <point x="773" y="775"/>
      <point x="920" y="872"/>
      <point x="920" y="1110" type="curve" smooth="yes"/>
      <point x="920" y="1348"/>
      <point x="773" y="1491"/>
      <point x="621" y="1491" type="curve" smooth="yes"/>
      <point x="41" y="1491" type="line"/>
      <point x="41" y="1500" type="line"/>
      <point x="621" y="1500" type="line" smooth="yes"/>
      <point x="923" y="1500"/>
      <point x="1121" y="1390"/>
      <point x="1121" y="1130" type="curve" smooth="yes"/>
      <point x="1121" y="870"/>
      <point x="943" y="767"/>
    </contour>
    <contour>
      <point x="220" y="1500" type="line"/>
      <point x="411" y="1500" type="line"/>
      <point x="411" y="0" type="line"/>
      <point x="220" y="0" type="line"/>
    </contour>
    <contour>
      <point x="661" y="0" type="curve" smooth="yes"/>
      <point x="41" y="0" type="line"/>
      <point x="41" y="9" type="line"/>
      <point x="640" y="9" type="line" smooth="yes"/>
      <point x="812" y="9"/>
      <point x="960" y="182"/>
      <point x="960" y="420" type="curve" smooth="yes"/>
      <point x="960" y="658"/>
      <point x="812" y="765"/>
      <point x="640" y="765" type="curve" smooth="yes"/>
      <point x="401" y="765" type="line"/>
      <point x="401" y="773" type="line"/>
      <point x="661" y="773" type="line" smooth="yes"/>
      <point x="943" y="773"/>
      <point x="1180" y="680"/>
      <point x="1180" y="420" type="curve" smooth="yes"/>
      <point x="1180" y="120"/>
      <point x="983" y="0"/>
    </contour>
  </outline>
</glyph>
<glyph name="C" format="2">
  <advance width="1349"/>
  <unicode hex="0043"/>
  <outline>
    <contour>
      <point x="1231" y="1500" type="line"/>
      <point x="1240" y="1500" type="line"/>
      <point x="1240" y="1090" type="line"/>
      <point x="1232" y="1224"/>
      <point x="1175" y="1312"/>
      <point x="1109" y="1381" type="curve"/>
    </contour>
    <contour>
      <point x="1240" y="1090" type="curve"/>
      <point x="1231" y="1090" type="line"/>
      <point x="1230" y="1333"/>
      <point x="1013" y="1504"/>
      <point x="787" y="1504" type="curve" smooth="yes"/>
      <point x="439" y="1504"/>
      <point x="317" y="1114"/>
      <point x="317" y="750" type="curve" smooth="yes"/>
      <point x="317" y="386"/>
      <point x="439" y="-4"/>
      <point x="787" y="-4" type="curve" smooth="yes"/>
      <point x="1063" y="-4"/>
      <point x="1249" y="188"/>
      <point x="1250" y="410" type="curve"/>
      <point x="1259" y="410" type="line"/>
      <point x="1259" y="164"/>
      <point x="1053" y="-20"/>
      <point x="767" y="-20" type="curve" smooth="yes"/>
      <point x="361" y="-20"/>
      <point x="87" y="304"/>
      <point x="87" y="750" type="curve" smooth="yes"/>
      <point x="87" y="1196"/>
      <point x="361" y="1520"/>
      <point x="767" y="1520" type="curve" smooth="yes"/>
      <point x="1023" y="1520"/>
      <point x="1240" y="1336"/>
    </contour>
    <contour>
      <point x="1259" y="410" type="curve"/>
      <point x="1259" y="0" type="line"/>
      <point x="1251" y="0" type="line"/>
      <point x="1138" y="129" type="line"/>
      <point x="1199" y="195"/>
      <point x="1249" y="272"/>
    </contour>
  </outline>
</glyph>
<glyph name="D" format="2">
  <advance width="1407"/>
  <unicode hex="0044"/>
  <outline>
    <contour>
      <point x="220" y="1500" type="line"/>
      <point x="411" y="1500" type="line"/>
      <point x="411" y="0" type="line"/>
      <point x="220" y="0" type="line"/>
    </contour>
    <contour>
      <point x="600" y="0" type="curve" smooth="yes"/>
      <point x="41" y="0" type="line"/>
      <point x="41" y="9" type="line"/>
      <point x="600" y="9" type="line" smooth="yes"/>
      <point x="968" y="9"/>
      <point x="1090" y="386"/>
      <point x="1090" y="750" type="curve" smooth="yes"/>
      <point x="1090" y="1114"/>
      <point x="948" y="1491"/>
      <point x="600" y="1491" type="curve" smooth="yes"/>
      <point x="41" y="1491" type="line"/>
      <point x="41" y="1500" type="line"/>
      <point x="600" y="1500" type="line" smooth="yes"/>
      <point x="1046" y="1500"/>
      <point x="1321" y="1176"/>
      <point x="1321" y="750" type="curve" smooth="yes"/>
      <point x="1321" y="324"/>
      <point x="1026" y="0"/>
    </contour>
  </outline>
</glyph>
<glyph name="E" format="2">
  <advance width="1175"/>
  <unicode hex="0045"/>
  <outline>
    <contour>
      <point x="1104" y="450" type="curve"/>
      <point x="1113" y="450" type="line"/>
      <point x="1113" y="0" type="line"/>
      <point x="41" y="0" type="line"/>
      <point x="41" y="9" type="line"/>
      <point x="731" y="9" type="line" smooth="yes"/>
      <point x="1005" y="9"/>
      <point x="1104" y="196"/>
    </contour>
    <contour>
      <point x="220" y="1500" type="line"/>
      <point x="411" y="1500" type="line"/>
      <point x="411" y="0" type="line"/>
      <point x="220" y="0" type="line"/>
    </contour>
    <contour>
      <point x="41" y="1500" type="line"/>
      <point x="1093" y="1500" type="line"/>
      <point x="1093" y="1090" type="line"/>
      <point x="1083" y="1090" type="line"/>
      <point x="1083" y="1304"/>
      <point x="984" y="1491"/>
      <point x="750" y="1491" type="curve" smooth="yes"/>
      <point x="41" y="1491" type="line"/>
    </contour>
    <contour>
      <point x="744" y="556" type="line"/>
      <point x="744" y="690"/>
      <point x="645" y="771"/>
      <point x="531" y="771" type="curve" smooth="yes"/>
      <point x="371" y="771" type="line"/>
      <point x="371" y="781" type="line"/>
      <point x="531" y="781" type="line" smooth="yes"/>
      <point x="645" y="781"/>
      <point x="744" y="852"/>
      <point x="744" y="986" type="curve"/>
      <point x="753" y="986" type="line"/>
      <point x="753" y="556" type="line"/>
    </contour>
  </outline>
</glyph>
<glyph name="F" format="2">
  <advance width="1135"/>
  <unicode hex="0046"/>
  <outline>
    <contour>
      <point x="41" y="1500" type="line"/>
      <point x="1073" y="1500" type="line"/>
      <point x="1073" y="1090" type="line"/>
      <point x="1064" y="1090" type="line"/>
      <point x="1064" y="1304"/>
      <point x="965" y="1491"/>
      <point x="731" y="1491" type="curve" smooth="yes"/>
      <point x="41" y="1491" type="line"/>
    </contour>
    <contour>
      <point x="41" y="9" type="line"/>
      <point x="611" y="9" type="line"/>
      <point x="611" y="0" type="line"/>
      <point x="41" y="0" type="line"/>
    </contour>
    <contour>
      <point x="220" y="1500" type="line"/>
      <point x="411" y="1500" type="line"/>
      <point x="411" y="0" type="line"/>
      <point x="220" y="0" type="line"/>
    </contour>
    <contour>
      <point x="763" y="536" type="line"/>
      <point x="763" y="670"/>
      <point x="674" y="741"/>
      <point x="500" y="741" type="curve" smooth="yes"/>
      <point x="371" y="741" type="line"/>
      <point x="371" y="751" type="line"/>
      <point x="500" y="751" type="line" smooth="yes"/>
      <point x="674" y="751"/>
      <point x="763" y="812"/>
      <point x="763" y="946" type="curve"/>
      <point x="772" y="946" type="line"/>
      <point x="772" y="536" type="line"/>
    </contour>
  </outline>
</glyph>
<glyph name="G" format="2">
  <advance width="1430"/>
  <unicode hex="0047"/>
  <outline>
    <contour>
      <point x="1240" y="1090" type="line"/>
      <point x="1235" y="1209"/>
      <point x="1178" y="1319"/>
      <point x="1109" y="1383" type="curve"/>
      <point x="1231" y="1500" type="line"/>
      <point x="1240" y="1500" type="line"/>
    </contour>
    <contour>
      <point x="867" y="575" type="line"/>
      <point x="1407" y="575" type="line"/>
      <point x="1407" y="565" type="line"/>
      <point x="867" y="565" type="line"/>
    </contour>
    <contour>
      <point x="1077" y="570" type="line"/>
      <point x="1287" y="570" type="line"/>
      <point x="1287" y="330" type="line"/>
      <point x="1227" y="204"/>
      <point x="1063" y="-20"/>
      <point x="737" y="-20" type="curve" smooth="yes"/>
      <point x="321" y="-20"/>
      <point x="87" y="304"/>
      <point x="87" y="750" type="curve" smooth="yes"/>
      <point x="87" y="1196"/>
      <point x="361" y="1520"/>
      <point x="767" y="1520" type="curve" smooth="yes"/>
      <point x="1023" y="1520"/>
      <point x="1240" y="1336"/>
      <point x="1240" y="1090" type="curve"/>
      <point x="1231" y="1090" type="line"/>
      <point x="1230" y="1336"/>
      <point x="1016" y="1504"/>
      <point x="787" y="1504" type="curve" smooth="yes"/>
      <point x="439" y="1504"/>
      <point x="317" y="1114"/>
      <point x="317" y="750" type="curve" smooth="yes"/>
      <point x="317" y="386"/>
      <point x="399" y="-10"/>
      <point x="737" y="-10" type="curve" smooth="yes"/>
      <point x="985" y="-10"/>
      <point x="1057" y="206"/>
      <point x="1077" y="250" type="curve"/>
    </contour>
  </outline>
</glyph>
<glyph name="H" format="2">
  <advance width="1480"/>
  <unicode hex="0048"/>
  <outline>
    <contour>
      <point x="371" y="745" type="line"/>
      <point x="1111" y="745" type="line"/>
      <point x="1111" y="735" type="line"/>
      <point x="371" y="735" type="line"/>
    </contour>
    <contour>
      <point x="871" y="9" type="line"/>
      <point x="1441" y="9" type="line"/>
      <point x="1441" y="0" type="line"/>
      <point x="871" y="0" type="line"/>
    </contour>
    <contour>
      <point x="41" y="9" type="line"/>
      <point x="611" y="9" type="line"/>
      <point x="611" y="0" type="line"/>
      <point x="41" y="0" type="line"/>
    </contour>
    <contour>
      <point x="871" y="1500" type="line"/>
      <point x="1441" y="1500" type="line"/>
      <point x="1441" y="1491" type="line"/>
      <point x="871" y="1491" type="line"/>
    </contour>
    <contour>
      <point x="41" y="1500" type="line"/>
      <point x="611" y="1500" type="line"/>
      <point x="611" y="1491" type="line"/>
      <point x="41" y="1491" type="line"/>
    </contour>
    <contour>
      <point x="1071" y="1500" type="line"/>
      <point x="1260" y="1500" type="line"/>
      <point x="1260" y="0" type="line"/>
      <point x="1071" y="0" type="line"/>
    </contour>
    <contour>
      <point x="220" y="1500" type="line"/>
      <point x="411" y="1500" type="line"/>
      <point x="411" y="0" type="line"/>
      <point x="220" y="0" type="line"/>
    </contour>
  </outline>
</glyph>
<glyph name="I" format="2">
  <advance width="730"/>
  <unicode hex="0049"/>
  <outline>
    <contour>
      <point x="41" y="9" type="line"/>
      <point x="691" y="9" type="line"/>
      <point x="691" y="0" type="line"/>
      <point x="41" y="0" type="line"/>
    </contour>
    <contour>
      <point x="41" y="1500" type="line"/>
      <point x="691" y="1500" type="line"/>
      <point x="691" y="1491" type="line"/>
      <point x="41" y="1491" type="line"/>
    </contour>
    <contour>
      <point x="260" y="1500" type="line"/>
      <point x="451" y="1500" type="line"/>
      <point x="451" y="0" type="line"/>
      <point x="260" y="0" type="line"/>
    </contour>
  </outline>
</glyph>
<glyph name="J" format="2">
  <advance width="871"/>
  <unicode hex="004A"/>
  <outline>
    <contour>
      <point x="181" y="1500" type="line"/>
      <point x="832" y="1500" type="line"/>
      <point x="832" y="1491" type="line"/>
      <point x="181" y="1491" type="line"/>
    </contour>
    <contour>
      <point x="441" y="1500" type="line"/>
      <point x="631" y="1500" type="line"/>
      <point x="631" y="340" type="line"/>
      <point x="591" y="200"/>
      <point x="513" y="-60"/>
      <point x="272" y="-60" type="curve" smooth="yes"/>
      <point x="118" y="-60"/>
      <point x="40" y="69"/>
      <point x="40" y="169" type="curve" smooth="yes"/>
      <point x="40" y="253"/>
      <point x="93" y="299"/>
      <point x="153" y="299" type="curve" smooth="yes"/>
      <point x="203" y="299"/>
      <point x="265" y="263"/>
      <point x="265" y="181" type="curve" smooth="yes"/>
      <point x="265" y="103"/>
      <point x="208" y="67"/>
      <point x="142" y="67" type="curve" smooth="yes"/>
      <point x="99" y="67"/>
      <point x="71" y="83"/>
      <point x="65" y="86" type="curve"/>
      <point x="87" y="38"/>
      <point x="144" y="-50"/>
      <point x="271" y="-50" type="curve" smooth="yes"/>
      <point x="432" y="-50"/>
      <point x="441" y="100"/>
      <point x="441" y="380" type="curve" smooth="yes"/>
    </contour>
  </outline>
</glyph>
<glyph name="K" format="2">
  <advance width="1363"/>
  <unicode hex="004B"/>
  <outline>
    <contour>
      <point x="41" y="9" type="line"/>
      <point x="611" y="9" type="line"/>
      <point x="611" y="0" type="line"/>
      <point x="41" y="0" type="line"/>
    </contour>
    <contour>
      <point x="41" y="1500" type="line"/>
      <point x="611" y="1500" type="line"/>
      <point x="611" y="1491" type="line"/>
      <point x="41" y="1491" type="line"/>
    </contour>
    <contour>
      <point x="220" y="1500" type="line"/>
      <point x="411" y="1500" type="line"/>
      <point x="411" y="0" type="line"/>
      <point x="220" y="0" type="line"/>
    </contour>
    <contour>
      <point x="248" y="434" type="line"/>
      <point x="235" y="434" type="line"/>
      <point x="1023" y="1496" type="line"/>
      <point x="1036" y="1496" type="line"/>
    </contour>
    <contour>
      <point x="731" y="9" type="line"/>
      <point x="1350" y="9" type="line"/>
      <point x="1350" y="0" type="line"/>
      <point x="731" y="0" type="line"/>
    </contour>
    <contour>
      <point x="1260" y="1491" type="line"/>
      <point x="781" y="1491" type="line"/>
      <point x="781" y="1500" type="line"/>
      <point x="1260" y="1500" type="line"/>
    </contour>
    <contour>
      <point x="1195" y="0" type="line"/>
      <point x="955" y="0" type="line"/>
      <point x="505" y="793" type="line"/>
      <point x="626" y="954" type="line"/>
    </contour>
  </outline>
</glyph>
<glyph name="L" format="2">
  <advance width="1145"/>
  <unicode hex="004C"/>
  <outline>
    <contour>
      <point x="220" y="1500" type="line"/>
      <point x="411" y="1500" type="line"/>
      <point x="411" y="0" type="line"/>
      <point x="220" y="0" type="line"/>
    </contour>
    <contour>
      <point x="41" y="1500" type="line"/>
      <point x="590" y="1500" type="line"/>
      <point x="590" y="1491" type="line"/>
      <point x="41" y="1491" type="line"/>
    </contour>
    <contour>
      <point x="1103" y="0" type="line"/>
      <point x="41" y="0" type="line"/>
      <point x="41" y="9" type="line"/>
      <point x="720" y="9" type="line" smooth="yes"/>
      <point x="1034" y="9"/>
      <point x="1093" y="196"/>
      <point x="1093" y="450" type="curve"/>
      <point x="1103" y="450" type="line"/>
    </contour>
  </outline>
</glyph>
<glyph name="M" format="2">
  <advance width="1666"/>
  <unicode hex="004D"/>
  <outline>
    <contour>
      <point x="1626" y="1500" type="line"/>
      <point x="1626" y="1491" type="line"/>
      <point x="1487" y="1491" type="line"/>
      <point x="1487" y="0" type="line"/>
      <point x="1296" y="0" type="line"/>
      <point x="1296" y="1500" type="line"/>
    </contour>
    <contour>
      <point x="50" y="9" type="line"/>
      <point x="358" y="9" type="line"/>
      <point x="358" y="0" type="line"/>
      <point x="50" y="0" type="line"/>
    </contour>
    <contour>
      <point x="1136" y="9" type="line"/>
      <point x="1626" y="9" type="line"/>
      <point x="1626" y="0" type="line"/>
      <point x="1136" y="0" type="line"/>
    </contour>
    <contour>
      <point x="851" y="256" type="line"/>
      <point x="1290" y="1500" type="line"/>
      <point x="1300" y="1500" type="line"/>
      <point x="765" y="-20" type="line"/>
      <point x="755" y="-20" type="line"/>
      <point x="199" y="1500" type="line"/>
      <point x="391" y="1500" type="line"/>
    </contour>
    <contour>
      <point x="194" y="1491" type="line"/>
      <point x="41" y="1491" type="line"/>
      <point x="41" y="1500" type="line"/>
      <point x="204" y="1500" type="line"/>
      <point x="204" y="0" type="line"/>
      <point x="194" y="0" type="line"/>
    </contour>
  </outline>
</glyph>
<glyph name="N" format="2">
  <advance width="1474"/>
  <unicode hex="004E"/>
  <outline>
    <contour>
      <point x="1215" y="1500" type="line"/>
      <point x="1225" y="1500" type="line"/>
      <point x="1225" y="-20" type="line"/>
      <point x="1214" y="-20" type="line"/>
      <point x="243" y="1500" type="line"/>
      <point x="473" y="1500" type="line"/>
      <point x="1215" y="304" type="line"/>
    </contour>
    <contour>
      <point x="977" y="1500" type="line"/>
      <point x="1435" y="1500" type="line"/>
      <point x="1435" y="1491" type="line"/>
      <point x="977" y="1491" type="line"/>
    </contour>
    <contour>
      <point x="41" y="9" type="line"/>
      <point x="490" y="9" type="line"/>
      <point x="490" y="0" type="line"/>
      <point x="41" y="0" type="line"/>
    </contour>
    <contour>
      <point x="239" y="1491" type="line"/>
      <point x="41" y="1491" type="line"/>
      <point x="41" y="1500" type="line"/>
      <point x="249" y="1500" type="line"/>
      <point x="249" y="0" type="line"/>
      <point x="239" y="0" type="line"/>
    </contour>
  </outline>
</glyph>
<glyph name="O" format="2">
  <advance width="1453"/>
  <unicode hex="004F"/>
  <outline>
    <contour>
      <point x="728" y="-20" type="curve" smooth="yes"/>
      <point x="322" y="-20"/>
      <point x="87" y="324"/>
      <point x="87" y="750" type="curve" smooth="yes"/>
      <point x="87" y="1176"/>
      <point x="342" y="1520"/>
      <point x="728" y="1520" type="curve" smooth="yes"/>
      <point x="1114" y="1520"/>
      <point x="1367" y="1176"/>
      <point x="1367" y="750" type="curve" smooth="yes"/>
      <point x="1367" y="324"/>
      <point x="1134" y="-20"/>
    </contour>
    <contour>
      <point x="728" y="1511" type="curve" smooth="yes"/>
      <point x="400" y="1511"/>
      <point x="317" y="1114"/>
      <point x="317" y="750" type="curve" smooth="yes"/>
      <point x="317" y="386"/>
      <point x="380" y="-11"/>
      <point x="728" y="-11" type="curve" smooth="yes"/>
      <point x="1076" y="-11"/>
      <point x="1137" y="386"/>
      <point x="1137" y="750" type="curve" smooth="yes"/>
      <point x="1137" y="1114"/>
      <point x="1056" y="1511"/>
    </contour>
  </outline>
</glyph>
<glyph name="P" format="2">
  <advance width="1236"/>
  <unicode hex="0050"/>
  <outline>
    <contour>
      <point x="220" y="1500" type="line"/>
      <point x="411" y="1500" type="line"/>
      <point x="411" y="0" type="line"/>
      <point x="220" y="0" type="line"/>
    </contour>
    <contour>
      <point x="41" y="9" type="line"/>
      <point x="590" y="9" type="line"/>
      <point x="590" y="0" type="line"/>
      <point x="41" y="0" type="line"/>
    </contour>
    <contour>
      <point x="630" y="673" type="curve" smooth="yes"/>
      <point x="371" y="673" type="line"/>
      <point x="371" y="682" type="line"/>
      <point x="630" y="682" type="line" smooth="yes"/>
      <point x="822" y="682"/>
      <point x="930" y="901"/>
      <point x="930" y="1079" type="curve" smooth="yes"/>
      <point x="930" y="1257"/>
      <point x="822" y="1491"/>
      <point x="630" y="1491" type="curve" smooth="yes"/>
      <point x="41" y="1491" type="line"/>
      <point x="41" y="1500" type="line"/>
      <point x="630" y="1500" type="line" smooth="yes"/>
      <point x="992" y="1500"/>
      <point x="1151" y="1339"/>
      <point x="1151" y="1079" type="curve" smooth="yes"/>
      <point x="1151" y="819"/>
      <point x="992" y="673"/>
    </contour>
  </outline>
</glyph>
<glyph name="Q" format="2">
  <advance width="1453"/>
  <unicode hex="0051"/>
  <outline>
    <contour>
      <point x="728" y="-20" type="curve" smooth="yes"/>
      <point x="322" y="-20"/>
      <point x="87" y="324"/>
      <point x="87" y="750" type="curve" smooth="yes"/>
      <point x="87" y="1176"/>
      <point x="342" y="1520"/>
      <point x="728" y="1520" type="curve" smooth="yes"/>
      <point x="1114" y="1520"/>
      <point x="1367" y="1176"/>
      <point x="1367" y="750" type="curve" smooth="yes"/>
      <point x="1367" y="324"/>
      <point x="1134" y="-20"/>
    </contour>
    <contour>
      <point x="728" y="1511" type="curve" smooth="yes"/>
      <point x="400" y="1511"/>
      <point x="317" y="1114"/>
      <point x="317" y="750" type="curve" smooth="yes"/>
      <point x="317" y="386"/>
      <point x="380" y="-11"/>
      <point x="728" y="-11" type="curve" smooth="yes"/>
      <point x="1076" y="-11"/>
      <point x="1137" y="386"/>
      <point x="1137" y="750" type="curve" smooth="yes"/>
      <point x="1137" y="1114"/>
      <point x="1056" y="1511"/>
    </contour>
    <contour>
      <point x="1067" y="-491" type="curve"/>
      <point x="1067" y="-500" type="line"/>
      <point x="641" y="-500"/>
      <point x="607" y="-349"/>
      <point x="607" y="-3" type="curve"/>
      <point x="687" y="-21"/>
      <point x="757" y="-21"/>
      <point x="837" y="-3" type="curve"/>
      <point x="837" y="-367"/>
      <point x="860" y="-491"/>
    </contour>
  </outline>
</glyph>
<glyph name="R" format="2">
  <advance width="1398"/>
  <unicode hex="0052"/>
  <outline>
    <contour>
      <point x="701" y="766" type="curve" smooth="yes"/>
      <point x="401" y="766" type="line"/>
      <point x="401" y="773" type="line"/>
      <point x="701" y="773" type="line" smooth="yes"/>
      <point x="893" y="773"/>
      <point x="1000" y="910"/>
      <point x="1000" y="1128" type="curve" smooth="yes"/>
      <point x="1000" y="1346"/>
      <point x="893" y="1491"/>
      <point x="701" y="1491" type="curve" smooth="yes"/>
      <point x="41" y="1491" type="line"/>
      <point x="41" y="1500" type="line"/>
      <point x="701" y="1500" type="line" smooth="yes"/>
      <point x="1003" y="1500"/>
      <point x="1201" y="1388"/>
      <point x="1201" y="1128" type="curve" smooth="yes"/>
      <point x="1201" y="868"/>
      <point x="1023" y="766"/>
    </contour>
    <contour>
      <point x="41" y="9" type="line"/>
      <point x="670" y="9" type="line"/>
      <point x="670" y="0" type="line"/>
      <point x="41" y="0" type="line"/>
    </contour>
    <contour>
      <point x="260" y="1500" type="line"/>
      <point x="451" y="1500" type="line"/>
      <point x="451" y="0" type="line"/>
      <point x="260" y="0" type="line"/>
    </contour>
    <contour>
      <point x="1371" y="22" type="line"/>
      <point x="1339" y="4"/>
      <point x="1277" y="-10"/>
      <point x="1191" y="-10" type="curve" smooth="yes"/>
      <point x="725" y="-10"/>
      <point x="1183" y="763"/>
      <point x="691" y="763" type="curve" smooth="yes"/>
      <point x="401" y="763" type="line"/>
      <point x="401" y="771" type="line"/>
      <point x="731" y="771" type="line" smooth="yes"/>
      <point x="1414" y="771"/>
      <point x="1015" y="5"/>
      <point x="1259" y="5" type="curve" smooth="yes"/>
      <point x="1301" y="5"/>
      <point x="1339" y="16"/>
      <point x="1367" y="29" type="curve"/>
    </contour>
  </outline>
</glyph>
<glyph name="S" format="2">
  <advance width="1121"/>
  <unicode hex="0053"/>
  <outline>
    <contour>
      <point x="967" y="1110" type="curve"/>
      <point x="958" y="1110" type="line"/>
      <point x="918" y="1384"/>
      <point x="758" y="1506"/>
      <point x="548" y="1506" type="curve" smooth="yes"/>
      <point x="356" y="1506"/>
      <point x="254" y="1404"/>
      <point x="254" y="1247" type="curve" smooth="yes"/>
      <point x="254" y="877"/>
      <point x="1044" y="958"/>
      <point x="1044" y="400" type="curve" smooth="yes"/>
      <point x="1044" y="140"/>
      <point x="866" y="-30"/>
      <point x="584" y="-30" type="curve" smooth="yes"/>
      <point x="273" y="-30"/>
      <point x="140" y="150"/>
      <point x="92" y="390" type="curve"/>
      <point x="101" y="390" type="line"/>
      <point x="146" y="155"/>
      <point x="282" y="-19"/>
      <point x="568" y="-19" type="curve" smooth="yes"/>
      <point x="780" y="-19"/>
      <point x="922" y="96"/>
      <point x="922" y="311" type="curve" smooth="yes"/>
      <point x="922" y="721"/>
      <point x="115" y="630"/>
      <point x="115" y="1150" type="curve" smooth="yes"/>
      <point x="115" y="1370"/>
      <point x="306" y="1520"/>
      <point x="529" y="1520" type="curve" smooth="yes"/>
      <point x="765" y="1520"/>
      <point x="927" y="1391"/>
    </contour>
    <contour>
      <point x="958" y="1520" type="line"/>
      <point x="967" y="1520" type="line"/>
      <point x="967" y="1110" type="line"/>
      <point x="946" y="1210"/>
      <point x="915" y="1305"/>
      <point x="849" y="1385" type="curve"/>
    </contour>
    <contour>
      <point x="100" y="-20" type="line"/>
      <point x="92" y="-20" type="line"/>
      <point x="92" y="390" type="line"/>
      <point x="125" y="269"/>
      <point x="152" y="201"/>
      <point x="208" y="128" type="curve"/>
    </contour>
  </outline>
</glyph>
<glyph name="T" format="2">
  <advance width="1275"/>
  <unicode hex="0054"/>
  <outline>
    <contour>
      <point x="323" y="9" type="line"/>
      <point x="953" y="9" type="line"/>
      <point x="953" y="0" type="line"/>
      <point x="323" y="0" type="line"/>
    </contour>
    <contour>
      <point x="543" y="1499" type="line"/>
      <point x="733" y="1499" type="line"/>
      <point x="733" y="0" type="line"/>
      <point x="543" y="0" type="line"/>
    </contour>
    <contour>
      <point x="933" y="1491" type="curve" smooth="yes"/>
      <point x="343" y="1491" type="line" smooth="yes"/>
      <point x="109" y="1491"/>
      <point x="49" y="1304"/>
      <point x="49" y="1050" type="curve"/>
      <point x="41" y="1050" type="line"/>
      <point x="41" y="1500" type="line"/>
      <point x="1236" y="1500" type="line"/>
      <point x="1236" y="1050" type="line"/>
      <point x="1226" y="1050" type="line"/>
      <point x="1226" y="1304"/>
      <point x="1167" y="1491"/>
    </contour>
  </outline>
</glyph>
<glyph name="U" format="2">
  <advance width="1401"/>
  <unicode hex="0055"/>
  <outline>
    <contour>
      <point x="967" y="1500" type="line"/>
      <point x="1361" y="1500" type="line"/>
      <point x="1361" y="1491" type="line"/>
      <point x="967" y="1491" type="line"/>
    </contour>
    <contour>
      <point x="40" y="1500" type="line"/>
      <point x="610" y="1500" type="line"/>
      <point x="610" y="1491" type="line"/>
      <point x="40" y="1491" type="line"/>
    </contour>
    <contour>
      <point x="1155" y="1500" type="line"/>
      <point x="1164" y="1500" type="line"/>
      <point x="1164" y="460" type="line" smooth="yes"/>
      <point x="1164" y="130"/>
      <point x="1035" y="-30"/>
      <point x="719" y="-30" type="curve" smooth="yes"/>
      <point x="373" y="-30"/>
      <point x="219" y="114"/>
      <point x="219" y="460" type="curve" smooth="yes"/>
      <point x="219" y="1500" type="line"/>
      <point x="410" y="1500" type="line"/>
      <point x="410" y="480" type="line" smooth="yes"/>
      <point x="410" y="216"/>
      <point x="471" y="-14"/>
      <point x="759" y="-14" type="curve" smooth="yes"/>
      <point x="1024" y="-14"/>
      <point x="1155" y="137"/>
      <point x="1155" y="460" type="curve" smooth="yes"/>
    </contour>
  </outline>
</glyph>
<glyph name="V" format="2">
  <advance width="1483"/>
  <unicode hex="0056"/>
  <outline>
    <contour>
      <point x="1443" y="1491" type="line"/>
      <point x="1000" y="1491" type="line"/>
      <point x="1000" y="1500" type="line"/>
      <point x="1443" y="1500" type="line"/>
    </contour>
    <contour>
      <point x="621" y="1491" type="line"/>
      <point x="41" y="1491" type="line"/>
      <point x="41" y="1500" type="line"/>
      <point x="621" y="1500" type="line"/>
    </contour>
    <contour>
      <point x="808" y="243" type="line"/>
      <point x="1262" y="1500" type="line"/>
      <point x="1273" y="1500" type="line"/>
      <point x="720" y="-30" type="line"/>
      <point x="710" y="-30" type="line"/>
      <point x="180" y="1500" type="line"/>
      <point x="400" y="1500" type="line"/>
    </contour>
  </outline>
</glyph>
<glyph name="W" format="2">
  <advance width="1948"/>
  <unicode hex="0057"/>
  <outline>
    <contour>
      <point x="1047" y="950" type="line"/>
      <point x="683" y="-20" type="line"/>
      <point x="673" y="-20" type="line"/>
      <point x="201" y="1500" type="line"/>
      <point x="401" y="1500" type="line"/>
      <point x="783" y="279" type="line"/>
      <point x="1050" y="989" type="line"/>
    </contour>
    <contour>
      <point x="1087" y="950" type="line"/>
      <point x="1079" y="959" type="line"/>
      <point x="1260" y="1500" type="line"/>
      <point x="1272" y="1500" type="line"/>
    </contour>
    <contour>
      <point x="1925" y="1491" type="line"/>
      <point x="1527" y="1491" type="line"/>
      <point x="1527" y="1500" type="line"/>
      <point x="1925" y="1500" type="line"/>
    </contour>
    <contour>
      <point x="927" y="1500" type="line"/>
      <point x="1304" y="279" type="line"/>
      <point x="1746" y="1500" type="line"/>
      <point x="1757" y="1500" type="line"/>
      <point x="1208" y="-20" type="line"/>
      <point x="1199" y="-20" type="line"/>
      <point x="727" y="1500" type="line"/>
    </contour>
    <contour>
      <point x="1427" y="1491" type="line"/>
      <point x="23" y="1491" type="line"/>
      <point x="23" y="1500" type="line"/>
      <point x="1427" y="1500" type="line"/>
    </contour>
  </outline>
</glyph>
<glyph name="X" format="2">
  <advance width="1469"/>
  <unicode hex="0058"/>
  <outline>
    <contour>
      <point x="743" y="754" type="line"/>
      <point x="731" y="754" type="line"/>
      <point x="1159" y="1496" type="line"/>
      <point x="1171" y="1496" type="line"/>
    </contour>
    <contour>
      <point x="249" y="0" type="line"/>
      <point x="237" y="0" type="line"/>
      <point x="752" y="834" type="line"/>
      <point x="765" y="834" type="line"/>
    </contour>
    <contour>
      <point x="883" y="9" type="line"/>
      <point x="1445" y="9" type="line"/>
      <point x="1445" y="0" type="line"/>
      <point x="883" y="0" type="line"/>
    </contour>
    <contour>
      <point x="23" y="9" type="line"/>
      <point x="501" y="9" type="line"/>
      <point x="501" y="0" type="line"/>
      <point x="23" y="0" type="line"/>
    </contour>
    <contour>
      <point x="653" y="1491" type="line"/>
      <point x="92" y="1491" type="line"/>
      <point x="92" y="1500" type="line"/>
      <point x="653" y="1500" type="line"/>
    </contour>
    <contour>
      <point x="1335" y="1491" type="line"/>
      <point x="896" y="1491" type="line"/>
      <point x="896" y="1500" type="line"/>
      <point x="1335" y="1500" type="line"/>
    </contour>
    <contour>
      <point x="1317" y="0" type="line"/>
      <point x="1077" y="0" type="line"/>
      <point x="212" y="1500" type="line"/>
      <point x="445" y="1500" type="line"/>
    </contour>
  </outline>
</glyph>
<glyph name="Y" format="2">
  <advance width="1417"/>
  <unicode hex="0059"/>
  <outline>
    <contour>
      <point x="1393" y="1491" type="line"/>
      <point x="975" y="1491" type="line"/>
      <point x="975" y="1500" type="line"/>
      <point x="1393" y="1500" type="line"/>
    </contour>
    <contour>
      <point x="603" y="1491" type="line"/>
      <point x="23" y="1491" type="line"/>
      <point x="23" y="1500" type="line"/>
      <point x="603" y="1500" type="line"/>
    </contour>
    <contour>
      <point x="453" y="9" type="line"/>
      <point x="1023" y="9" type="line"/>
      <point x="1023" y="0" type="line"/>
      <point x="453" y="0" type="line"/>
    </contour>
    <contour>
      <point x="816" y="774" type="line"/>
      <point x="1210" y="1496" type="line"/>
      <point x="1222" y="1496" type="line"/>
      <point x="823" y="766" type="line"/>
      <point x="823" y="0" type="line"/>
      <point x="632" y="0" type="line"/>
      <point x="632" y="720" type="line"/>
      <point x="161" y="1500" type="line"/>
      <point x="381" y="1500" type="line"/>
    </contour>
  </outline>
</glyph>
<glyph name="Z" format="2">
  <advance width="1104"/>
  <unicode hex="005A"/>
  <outline>
    <contour>
      <point x="73" y="1500" type="line"/>
      <point x="1032" y="1500" type="line"/>
      <point x="1032" y="1491" type="line"/>
      <point x="242" y="9" type="line"/>
      <point x="688" y="9" type="line" smooth="yes"/>
      <point x="962" y="9"/>
      <point x="1041" y="126"/>
      <point x="1041" y="380" type="curve"/>
      <point x="1050" y="380" type="line"/>
      <point x="1050" y="0" type="line"/>
      <point x="32" y="0" type="line"/>
      <point x="32" y="9" type="line"/>
      <point x="822" y="1491" type="line"/>
      <point x="435" y="1491" type="line" smooth="yes"/>
      <point x="161" y="1491"/>
      <point x="82" y="1374"/>
      <point x="82" y="1160" type="curve"/>
      <point x="73" y="1160" type="line"/>
    </contour>
  </outline>
</glyph>
<glyph name="backslash" format="2">
  <advance width="2132"/>
  <unicode hex="005C"/>
  <outline>
    <contour>
      <point x="184" y="3195" type="line"/>
      <point x="1971" y="-614" type="line"/>
      <point x="1951" y="-614" type="line"/>
      <point x="164" y="3195" type="line"/>
    </contour>
  </outline>
</glyph>
<glyph name="a" format="2">
  <advance width="2227"/>
  <unicode hex="0061"/>
  <outline>
    <contour>
      <point x="2176" y="245" type="line"/>
      <point x="2083" y="52"/>
      <point x="1916" y="-41"/>
      <point x="1741" y="-41" type="curve" smooth="yes"/>
      <point x="1548" y="-41"/>
      <point x="1367" y="23"/>
      <point x="1367" y="302" type="curve" smooth="yes"/>
      <point x="1367" y="1249" type="line" smooth="yes"/>
      <point x="1367" y="1524"/>
      <point x="1333" y="1887"/>
      <point x="1005" y="1887" type="curve" smooth="yes"/>
      <point x="754" y="1887"/>
      <point x="549" y="1791"/>
      <point x="464" y="1693" type="curve"/>
      <point x="689" y="1773"/>
      <point x="810" y="1636"/>
      <point x="810" y="1507" type="curve" smooth="yes"/>
      <point x="810" y="1343"/>
      <point x="672" y="1274"/>
      <point x="569" y="1274" type="curve" smooth="yes"/>
      <point x="446" y="1274"/>
      <point x="356" y="1352"/>
      <point x="356" y="1499" type="curve" smooth="yes"/>
      <point x="356" y="1753"/>
      <point x="712" y="1917"/>
      <point x="1085" y="1917" type="curve" smooth="yes"/>
      <point x="1695" y="1917"/>
      <point x="1735" y="1581"/>
      <point x="1735" y="1249" type="curve" smooth="yes"/>
      <point x="1735" y="177" type="line" smooth="yes"/>
      <point x="1735" y="76"/>
      <point x="1781" y="15"/>
      <point x="1878" y="15" type="curve" smooth="yes"/>
      <point x="1950" y="15"/>
      <point x="2084" y="93"/>
      <point x="2160" y="252" type="curve"/>
    </contour>
    <contour>
      <point x="1109" y="1036" type="curve" smooth="yes"/>
      <point x="1579" y="1036" type="line"/>
      <point x="1579" y="1018" type="line"/>
      <point x="1109" y="1018" type="line" smooth="yes"/>
      <point x="793" y="1018"/>
      <point x="628" y="766"/>
      <point x="628" y="478" type="curve" smooth="yes"/>
      <point x="628" y="210"/>
      <point x="727" y="17"/>
      <point x="913" y="17" type="curve" smooth="yes"/>
      <point x="1156" y="17"/>
      <point x="1367" y="219"/>
      <point x="1367" y="743" type="curve"/>
      <point x="1385" y="743" type="line"/>
      <point x="1385" y="238"/>
      <point x="1218" y="-41"/>
      <point x="767" y="-41" type="curve" smooth="yes"/>
      <point x="441" y="-41"/>
      <point x="212" y="158"/>
      <point x="212" y="463" type="curve" smooth="yes"/>
      <point x="212" y="808"/>
      <point x="490" y="1036"/>
    </contour>
  </outline>
</glyph>
<glyph name="b" format="2">
  <advance width="1197"/>
  <unicode hex="0062"/>
  <outline>
    <contour>
      <point x="358" y="460" type="curve" smooth="yes"/>
      <point x="358" y="758"/>
      <point x="476" y="938"/>
      <point x="680" y="938" type="curve" smooth="yes"/>
      <point x="897" y="938"/>
      <point x="1103" y="760"/>
      <point x="1103" y="460" type="curve" smooth="yes"/>
      <point x="1103" y="160"/>
      <point x="897" y="-20"/>
      <point x="680" y="-20" type="curve" smooth="yes"/>
      <point x="476" y="-20"/>
      <point x="358" y="162"/>
    </contour>
    <contour>
      <point x="367" y="460" type="curve" smooth="yes"/>
      <point x="367" y="158"/>
      <point x="494" y="0"/>
      <point x="649" y="0" type="curve" smooth="yes"/>
      <point x="815" y="0"/>
      <point x="894" y="192"/>
      <point x="894" y="460" type="curve" smooth="yes"/>
      <point x="894" y="728"/>
      <point x="815" y="918"/>
      <point x="649" y="918" type="curve" smooth="yes"/>
      <point x="494" y="918"/>
      <point x="367" y="762"/>
    </contour>
    <contour>
      <point x="188" y="1491" type="line"/>
      <point x="66" y="1491" type="line"/>
      <point x="66" y="1500" type="line"/>
      <point x="367" y="1500" type="line"/>
      <point x="367" y="0" type="line"/>
      <point x="66" y="0" type="line"/>
      <point x="66" y="9" type="line"/>
      <point x="188" y="9" type="line"/>
    </contour>
  </outline>
</glyph>
<glyph name="c" format="2">
  <advance width="1015"/>
  <unicode hex="0063"/>
  <outline>
    <contour>
      <point x="881" y="727" type="curve"/>
      <point x="855" y="853"/>
      <point x="727" y="928"/>
      <point x="583" y="928" type="curve" smooth="yes"/>
      <point x="346" y="928"/>
      <point x="306" y="648"/>
      <point x="306" y="460" type="curve" smooth="yes"/>
      <point x="306" y="232"/>
      <point x="350" y="-6"/>
      <point x="566" y="-6" type="curve" smooth="yes"/>
      <point x="745" y="-6"/>
      <point x="848" y="115"/>
      <point x="902" y="282" type="curve"/>
      <point x="912" y="282" type="line"/>
      <point x="860" y="110"/>
      <point x="754" y="-20"/>
      <point x="552" y="-20" type="curve" smooth="yes"/>
      <point x="290" y="-20"/>
      <point x="96" y="160"/>
      <point x="96" y="460" type="curve" smooth="yes"/>
      <point x="96" y="720"/>
      <point x="261" y="940"/>
      <point x="563" y="940" type="curve" smooth="yes"/>
      <point x="767" y="940"/>
      <point x="896" y="826"/>
      <point x="896" y="685" type="curve" smooth="yes"/>
      <point x="896" y="603"/>
      <point x="842" y="562"/>
      <point x="782" y="562" type="curve" smooth="yes"/>
      <point x="732" y="562"/>
      <point x="667" y="594"/>
      <point x="667" y="674" type="curve" smooth="yes"/>
      <point x="667" y="743"/>
      <point x="723" y="782"/>
      <point x="779" y="782" type="curve" smooth="yes"/>
      <point x="828" y="782"/>
      <point x="874" y="752"/>
    </contour>
  </outline>
</glyph>
<glyph name="d" format="2">
  <advance width="1197"/>
  <unicode hex="0064"/>
  <outline>
    <contour>
      <point x="839" y="459" type="curve" smooth="yes"/>
      <point x="839" y="160"/>
      <point x="723" y="-18"/>
      <point x="519" y="-18" type="curve" smooth="yes"/>
      <point x="302" y="-18"/>
      <point x="96" y="159"/>
      <point x="96" y="459" type="curve" smooth="yes"/>
      <point x="96" y="759"/>
      <point x="302" y="940"/>
      <point x="519" y="940" type="curve" smooth="yes"/>
      <point x="723" y="940"/>
      <point x="839" y="758"/>
    </contour>
    <contour>
      <point x="831" y="459" type="curve" smooth="yes"/>
      <point x="831" y="761"/>
      <point x="704" y="919"/>
      <point x="549" y="919" type="curve" smooth="yes"/>
      <point x="383" y="919"/>
      <point x="305" y="727"/>
      <point x="305" y="459" type="curve" smooth="yes"/>
      <point x="305" y="191"/>
      <point x="383" y="1"/>
      <point x="549" y="1" type="curve" smooth="yes"/>
      <point x="704" y="1"/>
      <point x="831" y="157"/>
    </contour>
    <contour>
      <point x="1133" y="9" type="line"/>
      <point x="1133" y="0" type="line"/>
      <point x="831" y="0" type="line"/>
      <point x="831" y="1491" type="line"/>
      <point x="709" y="1491" type="line"/>
      <point x="709" y="1500" type="line"/>
      <point x="1011" y="1500" type="line"/>
      <point x="1011" y="9" type="line"/>
    </contour>
  </outline>
</glyph>
<glyph name="e" format="2">
  <advance width="1052"/>
  <unicode hex="0065"/>
  <outline>
    <contour>
      <point x="230" y="521" type="line"/>
      <point x="230" y="531" type="line"/>
      <point x="752" y="531" type="line"/>
      <point x="753" y="684"/>
      <point x="729" y="930"/>
      <point x="553" y="930" type="curve" smooth="yes"/>
      <point x="356" y="930"/>
      <point x="305" y="688"/>
      <point x="305" y="460" type="curve" smooth="yes"/>
      <point x="305" y="232"/>
      <point x="357" y="-8"/>
      <point x="573" y="-8" type="curve" smooth="yes"/>
      <point x="777" y="-8"/>
      <point x="908" y="120"/>
      <point x="958" y="282" type="curve"/>
      <point x="969" y="282" type="line"/>
      <point x="917" y="110"/>
      <point x="781" y="-20"/>
      <point x="560" y="-20" type="curve" smooth="yes"/>
      <point x="299" y="-20"/>
      <point x="96" y="160"/>
      <point x="96" y="460" type="curve" smooth="yes"/>
      <point x="96" y="760"/>
      <point x="292" y="940"/>
      <point x="553" y="940" type="curve" smooth="yes"/>
      <point x="850" y="940"/>
      <point x="964" y="739"/>
      <point x="964" y="521" type="curve"/>
    </contour>
  </outline>
</glyph>
<glyph name="f" format="2">
  <advance width="752"/>
  <unicode hex="0066"/>
  <outline>
    <contour>
      <point x="56" y="9" type="line"/>
      <point x="619" y="9" type="line"/>
      <point x="619" y="0" type="line"/>
      <point x="56" y="0" type="line"/>
    </contour>
    <contour>
      <point x="56" y="920" type="line"/>
      <point x="659" y="920" type="line"/>
      <point x="659" y="911" type="line"/>
      <point x="56" y="911" type="line"/>
    </contour>
    <contour>
      <point x="846" y="1345" type="curve"/>
      <point x="833" y="1424"/>
      <point x="760" y="1510"/>
      <point x="611" y="1510" type="curve" smooth="yes"/>
      <point x="451" y="1510"/>
      <point x="397" y="1334"/>
      <point x="397" y="1080" type="curve" smooth="yes"/>
      <point x="397" y="0" type="line"/>
      <point x="218" y="0" type="line"/>
      <point x="218" y="1024" type="line" smooth="yes"/>
      <point x="218" y="1286"/>
      <point x="351" y="1520"/>
      <point x="611" y="1520" type="curve" smooth="yes"/>
      <point x="773" y="1520"/>
      <point x="857" y="1416"/>
      <point x="857" y="1322" type="curve" smooth="yes"/>
      <point x="857" y="1240"/>
      <point x="803" y="1198"/>
      <point x="743" y="1198" type="curve" smooth="yes"/>
      <point x="693" y="1198"/>
      <point x="631" y="1232"/>
      <point x="631" y="1309" type="curve" smooth="yes"/>
      <point x="631" y="1385"/>
      <point x="687" y="1417"/>
      <point x="745" y="1417" type="curve" smooth="yes"/>
      <point x="790" y="1417"/>
      <point x="830" y="1392"/>
    </contour>
  </outline>
</glyph>
<glyph name="g" format="2">
  <advance width="1165"/>
  <unicode hex="0067"/>
  <outline>
    <contour>
      <point x="129" y="148" type="curve" smooth="yes"/>
      <point x="129" y="296"/>
      <point x="324" y="342"/>
      <point x="477" y="342" type="curve"/>
      <point x="477" y="334" type="line"/>
      <point x="391" y="334"/>
      <point x="266" y="298"/>
      <point x="266" y="212" type="curve" smooth="yes"/>
      <point x="266" y="138"/>
      <point x="349" y="138"/>
      <point x="459" y="138" type="curve" smooth="yes"/>
      <point x="529" y="138"/>
      <point x="550" y="140"/>
      <point x="606" y="140" type="curve" smooth="yes"/>
      <point x="756" y="140"/>
      <point x="923" y="108"/>
      <point x="923" y="-164" type="curve" smooth="yes"/>
      <point x="923" y="-408"/>
      <point x="718" y="-520"/>
      <point x="497" y="-520" type="curve" smooth="yes"/>
      <point x="269" y="-520"/>
      <point x="66" y="-440"/>
      <point x="66" y="-250" type="curve" smooth="yes"/>
      <point x="66" y="-68"/>
      <point x="264" y="-13"/>
      <point x="354" y="-13" type="curve" smooth="yes"/>
      <point x="358" y="-13" type="line"/>
      <point x="268" y="-62"/>
      <point x="254" y="-139"/>
      <point x="254" y="-206" type="curve" smooth="yes"/>
      <point x="254" y="-341"/>
      <point x="326" y="-508"/>
      <point x="519" y="-508" type="curve" smooth="yes"/>
      <point x="722" y="-508"/>
      <point x="896" y="-393"/>
      <point x="896" y="-212" type="curve" smooth="yes"/>
      <point x="896" y="-66"/>
      <point x="750" y="-18"/>
      <point x="620" y="-18" type="curve" smooth="yes"/>
      <point x="578" y="-18"/>
      <point x="472" y="-18"/>
      <point x="428" y="-18" type="curve" smooth="yes"/>
      <point x="248" y="-18"/>
      <point x="129" y="24"/>
    </contour>
    <contour>
      <point x="305" y="630" type="curve" smooth="yes"/>
      <point x="305" y="482"/>
      <point x="316" y="342"/>
      <point x="474" y="342" type="curve" smooth="yes"/>
      <point x="592" y="342"/>
      <point x="643" y="482"/>
      <point x="643" y="630" type="curve" smooth="yes"/>
      <point x="643" y="778"/>
      <point x="592" y="930"/>
      <point x="474" y="930" type="curve" smooth="yes"/>
      <point x="356" y="930"/>
      <point x="305" y="778"/>
    </contour>
    <contour>
      <point x="116" y="630" type="curve" smooth="yes"/>
      <point x="116" y="850"/>
      <point x="312" y="940"/>
      <point x="474" y="940" type="curve" smooth="yes"/>
      <point x="636" y="940"/>
      <point x="831" y="850"/>
      <point x="831" y="630" type="curve" smooth="yes"/>
      <point x="831" y="410"/>
      <point x="636" y="333"/>
      <point x="474" y="333" type="curve" smooth="yes"/>
      <point x="312" y="333"/>
      <point x="116" y="410"/>
    </contour>
    <contour>
      <point x="1101" y="804" type="curve"/>
      <point x="1096" y="865"/>
      <point x="1045" y="921"/>
      <point x="952" y="921" type="curve" smooth="yes"/>
      <point x="869" y="921"/>
      <point x="749" y="865"/>
      <point x="709" y="692" type="curve"/>
      <point x="701" y="695" type="line"/>
      <point x="741" y="876"/>
      <point x="872" y="930"/>
      <point x="952" y="930" type="curve" smooth="yes"/>
      <point x="1053" y="930"/>
      <point x="1111" y="864"/>
      <point x="1111" y="788" type="curve" smooth="yes"/>
      <point x="1111" y="699"/>
      <point x="1060" y="668"/>
      <point x="1010" y="668" type="curve" smooth="yes"/>
      <point x="960" y="668"/>
      <point x="909" y="702"/>
      <point x="909" y="768" type="curve" smooth="yes"/>
      <point x="909" y="823"/>
      <point x="955" y="861"/>
      <point x="1009" y="861" type="curve" smooth="yes"/>
      <point x="1049" y="861"/>
      <point x="1092" y="839"/>
    </contour>
  </outline>
</glyph>
<glyph name="h" format="2">
  <advance width="1162"/>
  <unicode hex="0068"/>
  <outline>
    <contour>
      <point x="797" y="615" type="line" smooth="yes"/>
      <point x="797" y="783"/>
      <point x="785" y="926"/>
      <point x="673" y="926" type="curve" smooth="yes"/>
      <point x="402" y="926"/>
      <point x="367" y="623"/>
      <point x="367" y="447" type="curve"/>
      <point x="359" y="438" type="line"/>
      <point x="359" y="626"/>
      <point x="384" y="940"/>
      <point x="693" y="940" type="curve" smooth="yes"/>
      <point x="927" y="940"/>
      <point x="977" y="812"/>
      <point x="977" y="638" type="curve" smooth="yes"/>
      <point x="977" y="0" type="line"/>
      <point x="797" y="0" type="line"/>
    </contour>
    <contour>
      <point x="676" y="9" type="line"/>
      <point x="1099" y="9" type="line"/>
      <point x="1099" y="0" type="line"/>
      <point x="676" y="0" type="line"/>
    </contour>
    <contour>
      <point x="66" y="9" type="line"/>
      <point x="489" y="9" type="line"/>
      <point x="489" y="0" type="line"/>
      <point x="66" y="0" type="line"/>
    </contour>
    <contour>
      <point x="188" y="1491" type="line"/>
      <point x="66" y="1491" type="line"/>
      <point x="66" y="1500" type="line"/>
      <point x="367" y="1500" type="line"/>
      <point x="367" y="0" type="line"/>
      <point x="188" y="0" type="line"/>
    </contour>
  </outline>
</glyph>
<glyph name="i" format="2">
  <advance width="573"/>
  <unicode hex="0069"/>
  <outline>
    <contour>
      <point x="76" y="9" type="line"/>
      <point x="499" y="9" type="line"/>
      <point x="499" y="0" type="line"/>
      <point x="76" y="0" type="line"/>
    </contour>
    <contour>
      <point x="147" y="1400" type="curve" smooth="yes"/>
      <point x="147" y="1466"/>
      <point x="202" y="1520"/>
      <point x="268" y="1520" type="curve" smooth="yes"/>
      <point x="334" y="1520"/>
      <point x="388" y="1466"/>
      <point x="388" y="1400" type="curve" smooth="yes"/>
      <point x="388" y="1334"/>
      <point x="334" y="1280"/>
      <point x="268" y="1280" type="curve" smooth="yes"/>
      <point x="202" y="1280"/>
      <point x="147" y="1334"/>
    </contour>
    <contour>
      <point x="197" y="911" type="line"/>
      <point x="76" y="911" type="line"/>
      <point x="76" y="920" type="line"/>
      <point x="377" y="920" type="line"/>
      <point x="377" y="0" type="line"/>
      <point x="197" y="0" type="line"/>
    </contour>
  </outline>
</glyph>
<glyph name="j" format="2">
  <advance width="585"/>
  <unicode hex="006A"/>
  <outline>
    <contour>
      <point x="182" y="1400" type="curve" smooth="yes"/>
      <point x="182" y="1466"/>
      <point x="236" y="1520"/>
      <point x="302" y="1520" type="curve" smooth="yes"/>
      <point x="368" y="1520"/>
      <point x="421" y="1466"/>
      <point x="421" y="1400" type="curve" smooth="yes"/>
      <point x="421" y="1334"/>
      <point x="368" y="1280"/>
      <point x="302" y="1280" type="curve" smooth="yes"/>
      <point x="236" y="1280"/>
      <point x="182" y="1334"/>
    </contour>
    <contour>
      <point x="407" y="920" type="line"/>
      <point x="407" y="-24" type="line" smooth="yes"/>
      <point x="407" y="-286"/>
      <point x="354" y="-520"/>
      <point x="94" y="-520" type="curve" smooth="yes"/>
      <point x="-68" y="-520"/>
      <point x="-152" y="-416"/>
      <point x="-152" y="-302" type="curve" smooth="yes"/>
      <point x="-152" y="-220"/>
      <point x="-99" y="-178"/>
      <point x="-39" y="-178" type="curve" smooth="yes"/>
      <point x="11" y="-178"/>
      <point x="73" y="-206"/>
      <point x="73" y="-286" type="curve" smooth="yes"/>
      <point x="73" y="-364"/>
      <point x="18" y="-398"/>
      <point x="-50" y="-398" type="curve" smooth="yes"/>
      <point x="-92" y="-398"/>
      <point x="-131" y="-362"/>
      <point x="-140" y="-326" type="curve"/>
      <point x="-137" y="-416"/>
      <point x="-53" y="-509"/>
      <point x="83" y="-509" type="curve" smooth="yes"/>
      <point x="263" y="-509"/>
      <point x="228" y="-214"/>
      <point x="228" y="40" type="curve" smooth="yes"/>
      <point x="228" y="911" type="line"/>
      <point x="66" y="911" type="line"/>
      <point x="66" y="920" type="line"/>
    </contour>
  </outline>
</glyph>
<glyph name="k" format="2">
  <advance width="2425"/>
  <unicode hex="006B"/>
  <outline>
    <contour>
      <point x="2178" y="0" type="line"/>
      <point x="1716" y="0" type="line"/>
      <point x="803" y="1071" type="line"/>
      <point x="1834" y="1884" type="line"/>
      <point x="1860" y="1884" type="line"/>
      <point x="1093" y="1274" type="line"/>
    </contour>
    <contour>
      <point x="1401" y="19" type="line"/>
      <point x="2334" y="19" type="line"/>
      <point x="2334" y="0" type="line"/>
      <point x="1401" y="0" type="line"/>
    </contour>
    <contour>
      <point x="2194" y="1865" type="line"/>
      <point x="1355" y="1865" type="line"/>
      <point x="1355" y="1884" type="line"/>
      <point x="2194" y="1884" type="line"/>
    </contour>
    <contour>
      <point x="135" y="19" type="line"/>
      <point x="1120" y="19" type="line"/>
      <point x="1120" y="0" type="line"/>
      <point x="135" y="0" type="line"/>
    </contour>
    <contour>
      <point x="466" y="3053" type="line"/>
      <point x="135" y="3053" type="line"/>
      <point x="135" y="3072" type="line"/>
      <point x="834" y="3072" type="line"/>
      <point x="834" y="0" type="line"/>
      <point x="466" y="0" type="line"/>
    </contour>
  </outline>
</glyph>
<glyph name="l" format="2">
  <advance width="1296"/>
  <unicode hex="006C"/>
  <outline>
    <contour>
      <point x="135" y="19" type="line"/>
      <point x="1165" y="19" type="line"/>
      <point x="1165" y="0" type="line"/>
      <point x="135" y="0" type="line"/>
    </contour>
    <contour>
      <point x="466" y="3053" type="line"/>
      <point x="135" y="3053" type="line"/>
      <point x="135" y="3072" type="line"/>
      <point x="834" y="3072" type="line"/>
      <point x="834" y="0" type="line"/>
      <point x="466" y="0" type="line"/>
    </contour>
  </outline>
</glyph>
<glyph name="m" format="2">
  <advance width="1692"/>
  <unicode hex="006D"/>
  <outline>
    <contour>
      <point x="937" y="638" type="curve" smooth="yes"/>
      <point x="937" y="0" type="line"/>
      <point x="758" y="0" type="line"/>
      <point x="758" y="616" type="line" smooth="yes"/>
      <point x="758" y="784"/>
      <point x="756" y="925"/>
      <point x="645" y="925" type="curve" smooth="yes"/>
      <point x="410" y="925"/>
      <point x="366" y="623"/>
      <point x="366" y="448" type="curve"/>
      <point x="359" y="438" type="line"/>
      <point x="359" y="626"/>
      <point x="392" y="940"/>
      <point x="666" y="940" type="curve" smooth="yes"/>
      <point x="874" y="940"/>
      <point x="937" y="812"/>
    </contour>
    <contour>
      <point x="66" y="9" type="line"/>
      <point x="488" y="9" type="line"/>
      <point x="488" y="0" type="line"/>
      <point x="66" y="0" type="line"/>
    </contour>
    <contour>
      <point x="636" y="9" type="line"/>
      <point x="1059" y="9" type="line"/>
      <point x="1059" y="0" type="line"/>
      <point x="636" y="0" type="line"/>
    </contour>
    <contour>
      <point x="1206" y="9" type="line"/>
      <point x="1628" y="9" type="line"/>
      <point x="1628" y="0" type="line"/>
      <point x="1206" y="0" type="line"/>
    </contour>
    <contour>
      <point x="188" y="911" type="line"/>
      <point x="66" y="911" type="line"/>
      <point x="66" y="920" type="line"/>
      <point x="366" y="920" type="line"/>
      <point x="366" y="0" type="line"/>
      <point x="188" y="0" type="line"/>
    </contour>
    <contour>
      <point x="1507" y="638" type="curve" smooth="yes"/>
      <point x="1507" y="0" type="line"/>
      <point x="1327" y="0" type="line"/>
      <point x="1327" y="616" type="line" smooth="yes"/>
      <point x="1327" y="784"/>
      <point x="1325" y="925"/>
      <point x="1214" y="925" type="curve" smooth="yes"/>
      <point x="978" y="925"/>
      <point x="937" y="623"/>
      <point x="937" y="448" type="curve"/>
      <point x="929" y="438" type="line"/>
      <point x="929" y="626"/>
      <point x="959" y="940"/>
      <point x="1234" y="940" type="curve" smooth="yes"/>
      <point x="1442" y="940"/>
      <point x="1507" y="812"/>
    </contour>
  </outline>
</glyph>
<glyph name="o" format="2">
  <advance width="1106"/>
  <unicode hex="006F"/>
  <outline>
    <contour>
      <point x="305" y="460" type="curve" smooth="yes"/>
      <point x="305" y="272"/>
      <point x="337" y="-10"/>
      <point x="554" y="-10" type="curve" smooth="yes"/>
      <point x="771" y="-10"/>
      <point x="803" y="272"/>
      <point x="803" y="460" type="curve" smooth="yes"/>
      <point x="803" y="648"/>
      <point x="771" y="930"/>
      <point x="554" y="930" type="curve" smooth="yes"/>
      <point x="337" y="930"/>
      <point x="305" y="648"/>
    </contour>
    <contour>
      <point x="96" y="460" type="curve" smooth="yes"/>
      <point x="96" y="720"/>
      <point x="272" y="940"/>
      <point x="554" y="940" type="curve" smooth="yes"/>
      <point x="836" y="940"/>
      <point x="1012" y="720"/>
      <point x="1012" y="460" type="curve" smooth="yes"/>
      <point x="1012" y="200"/>
      <point x="836" y="-20"/>
      <point x="554" y="-20" type="curve" smooth="yes"/>
      <point x="272" y="-20"/>
      <point x="96" y="200"/>
    </contour>
  </outline>
</glyph>
<glyph name="p" format="2">
  <advance width="1197"/>
  <unicode hex="0070"/>
  <outline>
    <contour>
      <point x="358" y="460" type="curve" smooth="yes"/>
      <point x="358" y="759"/>
      <point x="476" y="938"/>
      <point x="680" y="938" type="curve" smooth="yes"/>
      <point x="897" y="938"/>
      <point x="1103" y="760"/>
      <point x="1103" y="460" type="curve" smooth="yes"/>
      <point x="1103" y="160"/>
      <point x="897" y="-20"/>
      <point x="680" y="-20" type="curve" smooth="yes"/>
      <point x="476" y="-20"/>
      <point x="358" y="161"/>
    </contour>
    <contour>
      <point x="367" y="460" type="curve" smooth="yes"/>
      <point x="367" y="158"/>
      <point x="494" y="0"/>
      <point x="649" y="0" type="curve" smooth="yes"/>
      <point x="815" y="0"/>
      <point x="894" y="192"/>
      <point x="894" y="460" type="curve" smooth="yes"/>
      <point x="894" y="728"/>
      <point x="815" y="918"/>
      <point x="649" y="918" type="curve" smooth="yes"/>
      <point x="494" y="918"/>
      <point x="367" y="762"/>
    </contour>
    <contour>
      <point x="66" y="-491" type="line"/>
      <point x="489" y="-491" type="line"/>
      <point x="489" y="-500" type="line"/>
      <point x="66" y="-500" type="line"/>
    </contour>
    <contour>
      <point x="188" y="911" type="line"/>
      <point x="66" y="911" type="line"/>
      <point x="66" y="920" type="line"/>
      <point x="367" y="920" type="line"/>
      <point x="367" y="-500" type="line"/>
      <point x="188" y="-500" type="line"/>
    </contour>
  </outline>
</glyph>
<glyph name="r" format="2">
  <advance width="852"/>
  <unicode hex="0072"/>
  <outline>
    <contour>
      <point x="784" y="829" type="curve"/>
      <point x="756" y="899"/>
      <point x="685" y="930"/>
      <point x="621" y="930" type="curve" smooth="yes"/>
      <point x="409" y="930"/>
      <point x="366" y="675"/>
      <point x="366" y="443" type="curve"/>
      <point x="358" y="443" type="line"/>
      <point x="358" y="685"/>
      <point x="401" y="940"/>
      <point x="621" y="940" type="curve" smooth="yes"/>
      <point x="714" y="940"/>
      <point x="803" y="876"/>
      <point x="803" y="780" type="curve" smooth="yes"/>
      <point x="803" y="712"/>
      <point x="764" y="658"/>
      <point x="688" y="658" type="curve" smooth="yes"/>
      <point x="622" y="658"/>
      <point x="570" y="694"/>
      <point x="570" y="767" type="curve" smooth="yes"/>
      <point x="570" y="878"/>
      <point x="722" y="925"/>
    </contour>
    <contour>
      <point x="66" y="9" type="line"/>
      <point x="490" y="9" type="line"/>
      <point x="490" y="0" type="line"/>
      <point x="66" y="0" type="line"/>
    </contour>
    <contour>
      <point x="188" y="911" type="line"/>
      <point x="66" y="911" type="line"/>
      <point x="66" y="920" type="line"/>
      <point x="366" y="920" type="line"/>
      <point x="366" y="0" type="line"/>
      <point x="188" y="0" type="line"/>
    </contour>
  </outline>
</glyph>
<glyph name="s" format="2">
  <advance width="886"/>
  <unicode hex="0073"/>
  <outline>
    <contour>
      <point x="704" y="764" type="curve"/>
      <point x="687" y="795"/>
      <point x="663" y="822"/>
      <point x="637" y="848" type="curve"/>
      <point x="729" y="940" type="line"/>
      <point x="737" y="940" type="line"/>
      <point x="737" y="660" type="line"/>
      <point x="731" y="660" type="line"/>
      <point x="729" y="697"/>
      <point x="721" y="731"/>
    </contour>
    <contour>
      <point x="736" y="660" type="curve"/>
      <point x="728" y="660" type="line"/>
      <point x="727" y="788"/>
      <point x="593" y="928"/>
      <point x="408" y="928" type="curve" smooth="yes"/>
      <point x="295" y="928"/>
      <point x="207" y="875"/>
      <point x="207" y="779" type="curve" smooth="yes"/>
      <point x="207" y="542"/>
      <point x="801" y="636"/>
      <point x="801" y="283" type="curve" smooth="yes"/>
      <point x="801" y="105"/>
      <point x="654" y="-20"/>
      <point x="461" y="-20" type="curve" smooth="yes"/>
      <point x="273" y="-20"/>
      <point x="114" y="106"/>
      <point x="104" y="262" type="curve"/>
      <point x="112" y="262" type="line"/>
      <point x="119" y="114"/>
      <point x="279" y="-8"/>
      <point x="449" y="-8" type="curve" smooth="yes"/>
      <point x="568" y="-8"/>
      <point x="691" y="40"/>
      <point x="691" y="178" type="curve" smooth="yes"/>
      <point x="691" y="431"/>
      <point x="127" y="302"/>
      <point x="127" y="671" type="curve" smooth="yes"/>
      <point x="127" y="799"/>
      <point x="216" y="938"/>
      <point x="406" y="938" type="curve" smooth="yes"/>
      <point x="601" y="938"/>
      <point x="736" y="792"/>
    </contour>
    <contour>
      <point x="111" y="-20" type="line"/>
      <point x="103" y="-20" type="line"/>
      <point x="103" y="262" type="line"/>
      <point x="110" y="262" type="line"/>
      <point x="111" y="213"/>
      <point x="129" y="174"/>
      <point x="144" y="150" type="curve"/>
      <point x="168" y="116"/>
      <point x="186" y="92"/>
      <point x="206" y="75" type="curve"/>
    </contour>
  </outline>
</glyph>
<glyph name="t" format="2">
  <advance width="1386"/>
  <unicode hex="0074"/>
  <outline>
    <contour>
      <point x="93" y="1884" type="line"/>
      <point x="1195" y="1884" type="line"/>
      <point x="1195" y="1865" type="line"/>
      <point x="93" y="1865" type="line"/>
    </contour>
    <contour>
      <point x="1318" y="407" type="line"/>
      <point x="1219" y="151"/>
      <point x="1016" y="-29"/>
      <point x="765" y="-29" type="curve" smooth="yes"/>
      <point x="429" y="-29"/>
      <point x="389" y="230"/>
      <point x="389" y="455" type="curve" smooth="yes"/>
      <point x="389" y="2294" type="line"/>
      <point x="512" y="2294"/>
      <point x="675" y="2356"/>
      <point x="757" y="2417" type="curve"/>
      <point x="757" y="304" type="line" smooth="yes"/>
      <point x="757" y="99"/>
      <point x="802" y="46"/>
      <point x="913" y="46" type="curve" smooth="yes"/>
      <point x="1065" y="46"/>
      <point x="1220" y="222"/>
      <point x="1301" y="414" type="curve"/>
    </contour>
  </outline>
</glyph>
<glyph name="u" format="2">
  <advance width="1163"/>
  <unicode hex="0075"/>
  <outline>
    <contour>
      <point x="367" y="920" type="line"/>
      <point x="367" y="305" type="line" smooth="yes"/>
      <point x="367" y="137"/>
      <point x="379" y="-6"/>
      <point x="491" y="-6" type="curve" smooth="yes"/>
      <point x="762" y="-6"/>
      <point x="797" y="297"/>
      <point x="797" y="473" type="curve"/>
      <point x="805" y="482" type="line"/>
      <point x="805" y="294"/>
      <point x="780" y="-20"/>
      <point x="471" y="-20" type="curve" smooth="yes"/>
      <point x="237" y="-20"/>
      <point x="188" y="108"/>
      <point x="188" y="282" type="curve" smooth="yes"/>
      <point x="188" y="911" type="line"/>
      <point x="66" y="911" type="line"/>
      <point x="66" y="920" type="line"/>
    </contour>
    <contour>
      <point x="978" y="9" type="line"/>
      <point x="1099" y="9" type="line"/>
      <point x="1099" y="0" type="line"/>
      <point x="797" y="0" type="line"/>
      <point x="797" y="911" type="line"/>
      <point x="657" y="911" type="line"/>
      <point x="657" y="920" type="line"/>
      <point x="978" y="920" type="line"/>
    </contour>
  </outline>
</glyph>
<glyph name="v" format="2">
  <advance width="2259"/>
  <unicode hex="0076"/>
  <outline>
    <contour>
      <point x="2170" y="1865" type="line"/>
      <point x="1460" y="1865" type="line"/>
      <point x="1460" y="1884" type="line"/>
      <point x="2170" y="1884" type="line"/>
    </contour>
    <contour>
      <point x="1039" y="1865" type="line"/>
      <point x="53" y="1865" type="line"/>
      <point x="53" y="1884" type="line"/>
      <point x="1039" y="1884" type="line"/>
    </contour>
    <contour>
      <point x="1248" y="419" type="line"/>
      <point x="1856" y="1884" type="line"/>
      <point x="1880" y="1884" type="line"/>
      <point x="1084" y="-41" type="line"/>
      <point x="1064" y="-41" type="line"/>
      <point x="274" y="1884" type="line"/>
      <point x="682" y="1884" type="line"/>
    </contour>
  </outline>
</glyph>
<glyph name="w" format="2">
  <advance width="3144"/>
  <unicode hex="0077"/>
  <outline>
    <contour>
      <point x="990" y="1865" type="line"/>
      <point x="53" y="1865" type="line"/>
      <point x="53" y="1884" type="line"/>
      <point x="990" y="1884" type="line"/>
    </contour>
    <contour>
      <point x="3056" y="1865" type="line"/>
      <point x="2269" y="1865" type="line"/>
      <point x="2269" y="1884" type="line"/>
      <point x="3056" y="1884" type="line"/>
    </contour>
    <contour>
      <point x="1108" y="447" type="line"/>
      <point x="1751" y="1925" type="line"/>
      <point x="1771" y="1925" type="line"/>
      <point x="2217" y="519" type="line"/>
      <point x="2673" y="1884" type="line"/>
      <point x="2697" y="1884" type="line"/>
      <point x="2053" y="-41" type="line"/>
      <point x="2034" y="-41" type="line"/>
      <point x="1532" y="1372" type="line"/>
      <point x="918" y="-41" type="line"/>
      <point x="898" y="-41" type="line"/>
      <point x="275" y="1884" type="line"/>
      <point x="656" y="1884" type="line"/>
    </contour>
  </outline>
</glyph>
<glyph name="x" format="2">
  <advance width="1121"/>
  <unicode hex="0078"/>
  <outline>
    <contour>
      <point x="670" y="9" type="line"/>
      <point x="1077" y="9" type="line"/>
      <point x="1077" y="0" type="line"/>
      <point x="670" y="0" type="line"/>
    </contour>
    <contour>
      <point x="45" y="9" type="line"/>
      <point x="388" y="9" type="line"/>
      <point x="388" y="0" type="line"/>
      <point x="45" y="0" type="line"/>
    </contour>
    <contour>
      <point x="521" y="911" type="line"/>
      <point x="66" y="911" type="line"/>
      <point x="66" y="920" type="line"/>
      <point x="521" y="920" type="line"/>
    </contour>
    <contour>
      <point x="1046" y="911" type="line"/>
      <point x="714" y="911" type="line"/>
      <point x="714" y="920" type="line"/>
      <point x="1046" y="920" type="line"/>
    </contour>
    <contour>
      <point x="1005" y="0" type="line"/>
      <point x="786" y="0" type="line"/>
      <point x="157" y="920" type="line"/>
      <point x="376" y="920" type="line"/>
    </contour>
    <contour>
      <point x="184" y="0" type="line"/>
      <point x="171" y="0" type="line"/>
      <point x="890" y="920" type="line"/>
      <point x="901" y="920" type="line"/>
    </contour>
  </outline>
</glyph>
<glyph name="y" format="2">
  <advance width="1102"/>
  <unicode hex="0079"/>
  <outline>
    <contour>
      <point x="469" y="911" type="line"/>
      <point x="26" y="911" type="line"/>
      <point x="26" y="920" type="line"/>
      <point x="469" y="920" type="line"/>
    </contour>
    <contour>
      <point x="1098" y="911" type="line"/>
      <point x="786" y="911" type="line"/>
      <point x="786" y="920" type="line"/>
      <point x="1098" y="920" type="line"/>
    </contour>
    <contour>
      <point x="667" y="189" type="line"/>
      <point x="573" y="-42" type="line"/>
      <point x="111" y="920" type="line"/>
      <point x="312" y="920" type="line"/>
    </contour>
    <contour>
      <point x="410" y="-422" type="curve"/>
      <point x="959" y="920" type="line"/>
      <point x="971" y="920" type="line"/>
      <point x="434" y="-396" type="line" smooth="yes"/>
      <point x="398" y="-479"/>
      <point x="368" y="-528"/>
      <point x="292" y="-528" type="curve" smooth="yes"/>
      <point x="242" y="-528"/>
      <point x="181" y="-496"/>
      <point x="181" y="-420" type="curve" smooth="yes"/>
      <point x="181" y="-354"/>
      <point x="226" y="-308"/>
      <point x="290" y="-308" type="curve" smooth="yes"/>
      <point x="352" y="-308"/>
      <point x="400" y="-352"/>
    </contour>
  </outline>
</glyph>
<glyph name="z" format="2">
  <advance width="929"/>
  <unicode hex="007A"/>
  <outline>
    <contour>
      <point x="410" y="911" type="line" smooth="yes"/>
      <point x="182" y="911"/>
      <point x="121" y="778"/>
      <point x="121" y="576" type="curve"/>
      <point x="112" y="576" type="line"/>
      <point x="112" y="920" type="line"/>
      <point x="832" y="920" type="line"/>
      <point x="832" y="911" type="line"/>
      <point x="271" y="9" type="line"/>
      <point x="520" y="9" type="line" smooth="yes"/>
      <point x="794" y="9"/>
      <point x="855" y="120"/>
      <point x="855" y="368" type="curve"/>
      <point x="864" y="368" type="line"/>
      <point x="864" y="0" type="line"/>
      <point x="56" y="0" type="line"/>
      <point x="56" y="9" type="line"/>
      <point x="615" y="911" type="line"/>
    </contour>
  </outline>
</glyph>
<glyph name="asciitilde" format="2">
  <advance width="1375"/>
  <unicode hex="007E"/>
  <outline>
    <contour>
      <point x="428" y="874" type="curve" smooth="yes"/>
      <point x="322" y="874"/>
      <point x="209" y="830"/>
      <point x="209" y="686" type="curve"/>
      <point x="200" y="686" type="line"/>
      <point x="200" y="916"/>
      <point x="340" y="1020"/>
      <point x="498" y="1020" type="curve" smooth="yes"/>
      <point x="718" y="1020"/>
      <point x="736" y="832"/>
      <point x="928" y="832" type="curve" smooth="yes"/>
      <point x="1054" y="832"/>
      <point x="1167" y="876"/>
      <point x="1167" y="1020" type="curve"/>
      <point x="1176" y="1020" type="line"/>
      <point x="1176" y="790"/>
      <point x="1036" y="686"/>
      <point x="878" y="686" type="curve" smooth="yes"/>
      <point x="624" y="686"/>
      <point x="634" y="874"/>
    </contour>
  </outline>
</glyph>
<glyph name="cent" format="2">
  <advance width="1015"/>
  <unicode hex="00A2"/>
  <outline>
    <contour>
      <point x="554" y="1110" type="line"/>
      <point x="554" y="-170" type="line"/>
      <point x="545" y="-170" type="line"/>
      <point x="545" y="1110" type="line"/>
    </contour>
    <component base="c"/>
  </outline>
</glyph>
<glyph name="sterling" format="2">
  <advance width="2560"/>
  <unicode hex="00A3"/>
  <outline>
    <contour>
      <point x="2466" y="643" type="line"/>
      <point x="2466" y="49"/>
      <point x="2134" y="-123"/>
      <point x="1769" y="-123" type="curve" smooth="yes"/>
      <point x="1208" y="-123"/>
      <point x="1024" y="123"/>
      <point x="766" y="123" type="curve" smooth="yes"/>
      <point x="598" y="123"/>
      <point x="359" y="41"/>
      <point x="318" y="-82" type="curve"/>
      <point x="304" y="-82" type="line"/>
      <point x="386" y="221"/>
      <point x="569" y="397"/>
      <point x="909" y="397" type="curve" smooth="yes"/>
      <point x="1319" y="397"/>
      <point x="1483" y="258"/>
      <point x="1794" y="258" type="curve" smooth="yes"/>
      <point x="2052" y="258"/>
      <point x="2447" y="307"/>
      <point x="2447" y="643" type="curve"/>
    </contour>
    <contour>
      <point x="1905" y="1659" type="line"/>
      <point x="1905" y="1639" type="line"/>
      <point x="61" y="1639" type="line"/>
      <point x="61" y="1659" type="line"/>
    </contour>
    <contour>
      <point x="483" y="2253" type="curve" smooth="yes"/>
      <point x="483" y="2826"/>
      <point x="914" y="3113"/>
      <point x="1573" y="3113" type="curve" smooth="yes"/>
      <point x="2237" y="3113"/>
      <point x="2507" y="2777"/>
      <point x="2507" y="2441" type="curve" smooth="yes"/>
      <point x="2507" y="2273"/>
      <point x="2388" y="2187"/>
      <point x="2265" y="2187" type="curve" smooth="yes"/>
      <point x="2163" y="2187"/>
      <point x="2032" y="2253"/>
      <point x="2032" y="2417" type="curve" smooth="yes"/>
      <point x="2032" y="2560"/>
      <point x="2146" y="2642"/>
      <point x="2265" y="2642" type="curve" smooth="yes"/>
      <point x="2380" y="2642"/>
      <point x="2450" y="2550"/>
      <point x="2473" y="2506" type="curve"/>
      <point x="2473" y="2770"/>
      <point x="2212" y="3093"/>
      <point x="1584" y="3093" type="curve" smooth="yes"/>
      <point x="1015" y="3093"/>
      <point x="938" y="2597"/>
      <point x="938" y="2294" type="curve" smooth="yes"/>
      <point x="938" y="1888"/>
      <point x="1167" y="1618"/>
      <point x="1167" y="1311" type="curve" smooth="yes"/>
      <point x="1167" y="574"/>
      <point x="262" y="553"/>
      <point x="315" y="-82" type="curve"/>
      <point x="295" y="-82" type="line"/>
      <point x="217" y="487"/>
      <point x="815" y="807"/>
      <point x="815" y="1069" type="curve" smooth="yes"/>
      <point x="815" y="1536"/>
      <point x="483" y="1782"/>
    </contour>
  </outline>
</glyph>
<glyph name="section" format="2">
  <advance width="893"/>
  <unicode hex="00A7"/>
  <outline>
    <contour>
      <point x="214" y="1296" type="curve" smooth="yes"/>
      <point x="214" y="1064"/>
      <point x="834" y="1076"/>
      <point x="834" y="770" type="curve" smooth="yes"/>
      <point x="834" y="646"/>
      <point x="708" y="584"/>
      <point x="600" y="512" type="curve"/>
      <point x="603" y="524" type="line"/>
      <point x="671" y="568"/>
      <point x="690" y="602"/>
      <point x="690" y="662" type="curve" smooth="yes"/>
      <point x="690" y="924"/>
      <point x="124" y="852"/>
      <point x="124" y="1216" type="curve" smooth="yes"/>
      <point x="124" y="1424"/>
      <point x="304" y="1520"/>
      <point x="454" y="1520" type="curve" smooth="yes"/>
      <point x="630" y="1520"/>
      <point x="802" y="1436"/>
      <point x="802" y="1224" type="curve" smooth="yes"/>
      <point x="802" y="1142"/>
      <point x="752" y="1080"/>
      <point x="682" y="1080" type="curve" smooth="yes"/>
      <point x="622" y="1080"/>
      <point x="574" y="1120"/>
      <point x="574" y="1192" type="curve" smooth="yes"/>
      <point x="574" y="1256"/>
      <point x="630" y="1302"/>
      <point x="688" y="1302" type="curve" smooth="yes"/>
      <point x="731" y="1302"/>
      <point x="778" y="1269"/>
      <point x="790" y="1238" type="curve"/>
      <point x="787" y="1427"/>
      <point x="626" y="1510"/>
      <point x="454" y="1510" type="curve" smooth="yes"/>
      <point x="315" y="1510"/>
      <point x="214" y="1419"/>
    </contour>
    <contour>
      <point x="818" y="324" type="curve" smooth="yes"/>
      <point x="818" y="116"/>
      <point x="658" y="-20"/>
      <point x="428" y="-20" type="curve" smooth="yes"/>
      <point x="252" y="-20"/>
      <point x="60" y="50"/>
      <point x="60" y="282" type="curve" smooth="yes"/>
      <point x="60" y="364"/>
      <point x="110" y="426"/>
      <point x="180" y="426" type="curve" smooth="yes"/>
      <point x="240" y="426"/>
      <point x="288" y="386"/>
      <point x="288" y="314" type="curve" smooth="yes"/>
      <point x="288" y="250"/>
      <point x="232" y="204"/>
      <point x="174" y="204" type="curve" smooth="yes"/>
      <point x="131" y="204"/>
      <point x="84" y="237"/>
      <point x="72" y="268" type="curve"/>
      <point x="78" y="59"/>
      <point x="260" y="-10"/>
      <point x="428" y="-10" type="curve" smooth="yes"/>
      <point x="634" y="-10"/>
      <point x="702" y="128"/>
      <point x="702" y="222" type="curve" smooth="yes"/>
      <point x="702" y="454"/>
      <point x="76" y="424"/>
      <point x="76" y="710" type="curve" smooth="yes"/>
      <point x="76" y="854"/>
      <point x="194" y="948"/>
      <point x="262" y="1000" type="curve"/>
      <point x="279" y="1000" type="line"/>
      <point x="242" y="976"/>
      <point x="223" y="943"/>
      <point x="223" y="863" type="curve" smooth="yes"/>
      <point x="223" y="601"/>
      <point x="818" y="688"/>
    </contour>
  </outline>
</glyph>
<glyph name="acute" format="2">
  <advance width="789"/>
  <unicode hex="00B4"/>
  <outline>
    <contour>
      <point x="610" y="1442" type="curve" smooth="yes"/>
      <point x="121" y="1437" type="line"/>
      <point x="117" y="1444" type="line"/>
      <point x="590" y="1576" type="line" smooth="yes"/>
      <point x="646" y="1591"/>
      <point x="680" y="1548"/>
      <point x="680" y="1510" type="curve" smooth="yes"/>
      <point x="680" y="1472"/>
      <point x="648" y="1442"/>
    </contour>
  </outline>
</glyph>
<glyph name="mu" format="2">
  <advance width="1163"/>
  <unicode hex="00B5"/>
  <outline>
    <contour>
      <point x="520" y="-246" type="curve" smooth="yes"/>
      <point x="586" y="-246"/>
      <point x="638" y="-304"/>
      <point x="638" y="-380" type="curve" smooth="yes"/>
      <point x="638" y="-458"/>
      <point x="597" y="-520"/>
      <point x="451" y="-520" type="curve" smooth="yes"/>
      <point x="311" y="-520"/>
      <point x="190" y="-422"/>
      <point x="190" y="-242" type="curve" smooth="yes"/>
      <point x="190" y="642" type="line"/>
      <point x="199" y="642" type="line"/>
      <point x="199" y="-242" type="line" smooth="yes"/>
      <point x="199" y="-415"/>
      <point x="318" y="-528"/>
      <point x="491" y="-507" type="curve"/>
      <point x="491" y="-510" type="line"/>
      <point x="443" y="-492"/>
      <point x="400" y="-444"/>
      <point x="400" y="-371" type="curve" smooth="yes"/>
      <point x="400" y="-305"/>
      <point x="454" y="-246"/>
    </contour>
    <component base="u"/>
  </outline>
</glyph>
<glyph name="cedilla" format="2">
  <advance width="2252"/>
  <unicode hex="00B8"/>
  <outline>
    <contour>
      <point x="1348" y="-572" type="curve" smooth="yes"/>
      <point x="1348" y="-358"/>
      <point x="1155" y="-324"/>
      <point x="889" y="-324" type="curve"/>
      <point x="1257" y="168" type="line"/>
      <point x="1283" y="168" type="line"/>
      <point x="1037" y="-160" type="line"/>
      <point x="1332" y="-172"/>
      <point x="1638" y="-263"/>
      <point x="1638" y="-492" type="curve" smooth="yes"/>
      <point x="1638" y="-697"/>
      <point x="1442" y="-834"/>
      <point x="946" y="-834" type="curve"/>
      <point x="946" y="-815" type="line"/>
      <point x="1188" y="-815"/>
      <point x="1348" y="-711"/>
    </contour>
  </outline>
</glyph>
<glyph name="AE" format="2">
  <advance width="2001"/>
  <unicode hex="00C6"/>
  <outline>
    <contour>
      <point x="1050" y="1500" type="line"/>
      <point x="1061" y="1500" type="line"/>
      <point x="228" y="0" type="line"/>
      <point x="216" y="0" type="line"/>
    </contour>
    <contour>
      <point x="30" y="9" type="line"/>
      <point x="470" y="9" type="line"/>
      <point x="470" y="0" type="line"/>
      <point x="30" y="0" type="line"/>
    </contour>
    <contour>
      <point x="494" y="495" type="line"/>
      <point x="1070" y="495" type="line"/>
      <point x="1070" y="485" type="line"/>
      <point x="494" y="485" type="line"/>
    </contour>
    <contour>
      <point x="1050" y="1500" type="line"/>
      <point x="1240" y="1500" type="line"/>
      <point x="1240" y="0" type="line"/>
      <point x="1050" y="0" type="line"/>
    </contour>
    <contour>
      <point x="1050" y="1500" type="line"/>
      <point x="1922" y="1500" type="line"/>
      <point x="1922" y="1090" type="line"/>
      <point x="1913" y="1090" type="line"/>
      <point x="1913" y="1304"/>
      <point x="1814" y="1491"/>
      <point x="1580" y="1491" type="curve" smooth="yes"/>
      <point x="1050" y="1491" type="line"/>
    </contour>
    <contour>
      <point x="1942" y="0" type="line"/>
      <point x="870" y="0" type="line"/>
      <point x="870" y="9" type="line"/>
      <point x="1560" y="9" type="line" smooth="yes"/>
      <point x="1834" y="9"/>
      <point x="1933" y="196"/>
      <point x="1933" y="450" type="curve"/>
      <point x="1942" y="450" type="line"/>
    </contour>
    <contour>
      <point x="1573" y="556" type="line"/>
      <point x="1573" y="690"/>
      <point x="1474" y="771"/>
      <point x="1360" y="771" type="curve" smooth="yes"/>
      <point x="1240" y="771" type="line"/>
      <point x="1240" y="781" type="line"/>
      <point x="1360" y="781" type="line" smooth="yes"/>
      <point x="1474" y="781"/>
      <point x="1573" y="852"/>
      <point x="1573" y="986" type="curve"/>
      <point x="1583" y="986" type="line"/>
      <point x="1583" y="556" type="line"/>
    </contour>
  </outline>
</glyph>
<glyph name="eth" format="2">
  <advance width="1119"/>
  <unicode hex="00F0"/>
  <outline>
    <contour>
      <point x="220" y="1260" type="line"/>
      <point x="1060" y="1260" type="line"/>
      <point x="1060" y="1250" type="line"/>
      <point x="220" y="1250" type="line"/>
    </contour>
    <contour>
      <point x="1020" y="620" type="curve" smooth="yes"/>
      <point x="1020" y="200"/>
      <point x="834" y="-20"/>
      <point x="532" y="-20" type="curve" smooth="yes"/>
      <point x="230" y="-20"/>
      <point x="60" y="200"/>
      <point x="60" y="500" type="curve" smooth="yes"/>
      <point x="60" y="840"/>
      <point x="296" y="980"/>
      <point x="498" y="980" type="curve" smooth="yes"/>
      <point x="760" y="980"/>
      <point x="829" y="794"/>
      <point x="829" y="560" type="curve"/>
      <point x="820" y="560" type="line"/>
      <point x="820" y="785"/>
      <point x="745" y="960"/>
      <point x="542" y="960" type="curve" smooth="yes"/>
      <point x="364" y="960"/>
      <point x="260" y="768"/>
      <point x="260" y="500" type="curve" smooth="yes"/>
      <point x="260" y="272"/>
      <point x="308" y="-10"/>
      <point x="526" y="-10" type="curve" smooth="yes"/>
      <point x="744" y="-10"/>
      <point x="820" y="292"/>
      <point x="820" y="560" type="curve"/>
      <point x="820" y="647" type="line"/>
      <point x="820" y="1047"/>
      <point x="558" y="1511"/>
      <point x="210" y="1511" type="curve"/>
      <point x="210" y="1520" type="line"/>
      <point x="656" y="1520"/>
      <point x="1020" y="1107"/>
    </contour>
  </outline>
</glyph>
<glyph name="thorn" format="2">
  <advance width="2359"/>
  <unicode hex="00FE"/>
  <outline>
    <contour>
      <point x="709" y="942" type="curve" smooth="yes"/>
      <point x="709" y="1554"/>
      <point x="949" y="1921"/>
      <point x="1366" y="1921" type="curve" smooth="yes"/>
      <point x="1810" y="1921"/>
      <point x="2230" y="1556"/>
      <point x="2230" y="942" type="curve" smooth="yes"/>
      <point x="2230" y="328"/>
      <point x="1810" y="-41"/>
      <point x="1366" y="-41" type="curve" smooth="yes"/>
      <point x="949" y="-41"/>
      <point x="709" y="330"/>
    </contour>
    <contour>
      <point x="724" y="942" type="curve" smooth="yes"/>
      <point x="724" y="323"/>
      <point x="985" y="0"/>
      <point x="1303" y="0" type="curve" smooth="yes"/>
      <point x="1643" y="0"/>
      <point x="1802" y="393"/>
      <point x="1802" y="942" type="curve" smooth="yes"/>
      <point x="1802" y="1491"/>
      <point x="1643" y="1880"/>
      <point x="1303" y="1880" type="curve" smooth="yes"/>
      <point x="985" y="1880"/>
      <point x="724" y="1561"/>
    </contour>
    <contour>
      <point x="70" y="-1005" type="line"/>
      <point x="1012" y="-1005" type="line"/>
      <point x="1012" y="-1024" type="line"/>
      <point x="70" y="-1024" type="line"/>
    </contour>
    <contour>
      <point x="356" y="3053" type="line"/>
      <point x="70" y="3053" type="line"/>
      <point x="70" y="3072" type="line"/>
      <point x="724" y="3072" type="line"/>
      <point x="724" y="-1024" type="line"/>
      <point x="356" y="-1024" type="line"/>
    </contour>
  </outline>
</glyph>
<glyph name="dotlessi" format="2">
  <advance width="546"/>
  <unicode hex="0131"/>
  <outline>
    <contour>
      <point x="44" y="9" type="line"/>
      <point x="504" y="9" type="line"/>
      <point x="504" y="0" type="line"/>
      <point x="44" y="0" type="line"/>
    </contour>
    <contour>
      <point x="184" y="911" type="line"/>
      <point x="44" y="911" type="line"/>
      <point x="44" y="920" type="line"/>
      <point x="364" y="920" type="line"/>
      <point x="364" y="0" type="line"/>
      <point x="184" y="0" type="line"/>
    </contour>
  </outline>
</glyph>
<glyph name="kgreenlandic" format="2">
  <advance width="1175"/>
  <unicode hex="0138"/>
  <outline>
    <contour>
      <point x="1068" y="0" type="line"/>
      <point x="844" y="0" type="line"/>
      <point x="396" y="523" type="line"/>
      <point x="900" y="920" type="line"/>
      <point x="914" y="920" type="line"/>
      <point x="540" y="622" type="line"/>
    </contour>
    <contour>
      <point x="670" y="9" type="line"/>
      <point x="1144" y="9" type="line"/>
      <point x="1144" y="0" type="line"/>
      <point x="670" y="0" type="line"/>
    </contour>
    <contour>
      <point x="1076" y="911" type="line"/>
      <point x="630" y="911" type="line"/>
      <point x="630" y="920" type="line"/>
      <point x="1076" y="920" type="line"/>
    </contour>
    <contour>
      <point x="52" y="9" type="line"/>
      <point x="552" y="9" type="line"/>
      <point x="552" y="0" type="line"/>
      <point x="52" y="0" type="line"/>
    </contour>
    <contour>
      <point x="232" y="911" type="line"/>
      <point x="52" y="911" type="line"/>
      <point x="52" y="920" type="line"/>
      <point x="412" y="920" type="line"/>
      <point x="412" y="0" type="line"/>
      <point x="232" y="0" type="line"/>
    </contour>
  </outline>
</glyph>
<glyph name="lslash" format="2">
  <advance width="632"/>
  <unicode hex="0142"/>
  <outline>
    <contour>
      <point x="48" y="800" type="line"/>
      <point x="618" y="1160" type="line"/>
      <point x="618" y="1150" type="line"/>
      <point x="48" y="790" type="line"/>
    </contour>
    <component base="l"/>
  </outline>
</glyph>
<glyph name="OE" format="2">
  <advance width="1905"/>
  <unicode hex="0152"/>
  <outline>
    <contour>
      <point x="790" y="1491" type="move"/>
    </contour>
    <contour>
      <point x="310" y="750" type="curve" smooth="yes"/>
      <point x="310" y="386"/>
      <point x="422" y="9"/>
      <point x="790" y="9" type="curve"/>
      <point x="769" y="0" type="line"/>
      <point x="363" y="0"/>
      <point x="80" y="304"/>
      <point x="80" y="750" type="curve" smooth="yes"/>
      <point x="80" y="1196"/>
      <point x="363" y="1500"/>
      <point x="769" y="1500" type="curve"/>
      <point x="790" y="1491" type="line"/>
      <point x="422" y="1491"/>
      <point x="310" y="1114"/>
    </contour>
    <component base="E" xOffset="726"/>
  </outline>
</glyph>
<glyph name="uni0237" format="2">
  <advance width="578"/>
  <unicode hex="0237"/>
  <outline>
    <contour>
      <point x="412" y="920" type="line"/>
      <point x="412" y="-24" type="line" smooth="yes"/>
      <point x="412" y="-286"/>
      <point x="358" y="-520"/>
      <point x="98" y="-520" type="curve" smooth="yes"/>
      <point x="-64" y="-520"/>
      <point x="-148" y="-416"/>
      <point x="-148" y="-302" type="curve" smooth="yes"/>
      <point x="-148" y="-220"/>
      <point x="-94" y="-178"/>
      <point x="-34" y="-178" type="curve" smooth="yes"/>
      <point x="16" y="-178"/>
      <point x="78" y="-206"/>
      <point x="78" y="-286" type="curve" smooth="yes"/>
      <point x="78" y="-364"/>
      <point x="23" y="-398"/>
      <point x="-45" y="-398" type="curve" smooth="yes"/>
      <point x="-87" y="-398"/>
      <point x="-125" y="-362"/>
      <point x="-134" y="-326" type="curve"/>
      <point x="-132" y="-416"/>
      <point x="-48" y="-509"/>
      <point x="88" y="-509" type="curve" smooth="yes"/>
      <point x="268" y="-509"/>
      <point x="232" y="-214"/>
      <point x="232" y="40" type="curve" smooth="yes"/>
      <point x="232" y="911" type="line"/>
      <point x="53" y="911" type="line"/>
      <point x="53" y="920" type="line"/>
    </contour>
  </outline>
</glyph>
<glyph name="ring" format="2">
  <advance width="1310"/>
  <unicode hex="02DA"/>
  <outline>
    <contour>
      <point x="287" y="2785" type="curve" smooth="yes"/>
      <point x="287" y="2994"/>
      <point x="446" y="3154"/>
      <point x="655" y="3154" type="curve" smooth="yes"/>
      <point x="864" y="3154"/>
      <point x="1024" y="2994"/>
      <point x="1024" y="2785" type="curve" smooth="yes"/>
      <point x="1024" y="2576"/>
      <point x="864" y="2417"/>
      <point x="655" y="2417" type="curve" smooth="yes"/>
      <point x="446" y="2417"/>
      <point x="287" y="2576"/>
    </contour>
    <contour>
      <point x="431" y="2785" type="curve" smooth="yes"/>
      <point x="431" y="2615"/>
      <point x="469" y="2435"/>
      <point x="655" y="2435" type="curve" smooth="yes"/>
      <point x="841" y="2435"/>
      <point x="879" y="2615"/>
      <point x="879" y="2785" type="curve" smooth="yes"/>
      <point x="879" y="2955"/>
      <point x="841" y="3135"/>
      <point x="655" y="3135" type="curve" smooth="yes"/>
      <point x="469" y="3135"/>
      <point x="431" y="2955"/>
    </contour>
  </outline>
</glyph>
<glyph name="ogonek" format="2">
  <advance width="1099"/>
  <unicode hex="02DB"/>
  <outline>
    <contour>
      <point x="776" y="-226" type="line"/>
      <point x="746" y="-282"/>
      <point x="688" y="-372"/>
      <point x="546" y="-372" type="curve" smooth="yes"/>
      <point x="444" y="-372"/>
      <point x="330" y="-320"/>
      <point x="330" y="-200" type="curve" smooth="yes"/>
      <point x="330" y="-40"/>
      <point x="486" y="46"/>
      <point x="608" y="86" type="curve"/>
      <point x="614" y="79" type="line"/>
      <point x="552" y="45"/>
      <point x="516" y="-45"/>
      <point x="516" y="-168" type="curve" smooth="yes"/>
      <point x="516" y="-260"/>
      <point x="560" y="-332"/>
      <point x="628" y="-332" type="curve" smooth="yes"/>
      <point x="699" y="-332"/>
      <point x="734" y="-282"/>
      <point x="771" y="-222" type="curve"/>
    </contour>
  </outline>
</glyph>
<glyph name="tilde" format="2">
  <advance width="895"/>
  <unicode hex="02DC"/>
  <outline>
    <contour>
      <point x="249" y="1338" type="curve" smooth="yes"/>
      <point x="183" y="1338"/>
      <point x="109" y="1304"/>
      <point x="109" y="1200" type="curve"/>
      <point x="100" y="1200" type="line"/>
      <point x="100" y="1370"/>
      <point x="202" y="1454"/>
      <point x="300" y="1454" type="curve" smooth="yes"/>
      <point x="443" y="1454"/>
      <point x="536" y="1296"/>
      <point x="647" y="1296" type="curve" smooth="yes"/>
      <point x="731" y="1296"/>
      <point x="787" y="1330"/>
      <point x="787" y="1434" type="curve"/>
      <point x="796" y="1434" type="line"/>
      <point x="796" y="1244"/>
      <point x="734" y="1180"/>
      <point x="616" y="1180" type="curve" smooth="yes"/>
      <point x="479" y="1180"/>
      <point x="374" y="1338"/>
    </contour>
  </outline>
</glyph>
<glyph name="pi" format="2">
  <advance width="2378"/>
  <unicode hex="03C0"/>
  <outline>
    <contour>
      <point x="2236" y="422" type="line"/>
      <point x="2142" y="135"/>
      <point x="2009" y="-41"/>
      <point x="1794" y="-41" type="curve" smooth="yes"/>
      <point x="1601" y="-41"/>
      <point x="1417" y="57"/>
      <point x="1417" y="299" type="curve" smooth="yes"/>
      <point x="1417" y="1720" type="line"/>
      <point x="1786" y="1720" type="line"/>
      <point x="1786" y="340" type="line" smooth="yes"/>
      <point x="1786" y="258"/>
      <point x="1839" y="192"/>
      <point x="1937" y="192" type="curve" smooth="yes"/>
      <point x="2048" y="192"/>
      <point x="2137" y="257"/>
      <point x="2222" y="434" type="curve"/>
    </contour>
    <contour>
      <point x="426" y="-41" type="curve" smooth="yes"/>
      <point x="258" y="-41"/>
      <point x="184" y="54"/>
      <point x="184" y="156" type="curve" smooth="yes"/>
      <point x="184" y="435"/>
      <point x="643" y="336"/>
      <point x="643" y="1143" type="curve" smooth="yes"/>
      <point x="643" y="1843" type="line"/>
      <point x="872" y="1843" type="line"/>
      <point x="872" y="995" type="line" smooth="yes"/>
      <point x="872" y="348"/>
      <point x="705" y="-41"/>
    </contour>
    <contour>
      <point x="2154" y="1884" type="line"/>
      <point x="2154" y="1516" type="line"/>
      <point x="187" y="1516" type="line"/>
      <point x="187" y="1208" type="line"/>
      <point x="168" y="1208" type="line"/>
      <point x="168" y="1884" type="line"/>
    </contour>
  </outline>
</glyph>
<glyph name="uni1E9E" format="2">
  <advance width="1601"/>
  <unicode hex="1E9E"/>
  <outline>
    <contour>
      <point x="30" y="9" type="line"/>
      <point x="590" y="9" type="line"/>
      <point x="590" y="0" type="line"/>
      <point x="30" y="0" type="line"/>
    </contour>
    <contour>
      <point x="1047" y="814" type="line"/>
      <point x="979" y="821"/>
      <point x="913" y="825"/>
      <point x="846" y="830" type="curve"/>
      <point x="1320" y="1416" type="line"/>
      <point x="1252" y="1453"/>
      <point x="1118" y="1510"/>
      <point x="926" y="1510" type="curve" smooth="yes"/>
      <point x="578" y="1510"/>
      <point x="410" y="1206"/>
      <point x="410" y="862" type="curve" smooth="yes"/>
      <point x="410" y="0" type="line"/>
      <point x="210" y="0" type="line"/>
      <point x="210" y="882" type="line" smooth="yes"/>
      <point x="210" y="1288"/>
      <point x="520" y="1520"/>
      <point x="926" y="1520" type="curve" smooth="yes"/>
      <point x="1232" y="1520"/>
      <point x="1402" y="1388"/>
      <point x="1462" y="1322" type="curve"/>
    </contour>
    <contour>
      <point x="622" y="252" type="curve"/>
      <point x="627" y="126"/>
      <point x="756" y="-5"/>
      <point x="982" y="-5" type="curve" smooth="yes"/>
      <point x="1220" y="-5"/>
      <point x="1310" y="192"/>
      <point x="1310" y="380" type="curve" smooth="yes"/>
      <point x="1310" y="528"/>
      <point x="1284" y="821"/>
      <point x="846" y="821" type="curve"/>
      <point x="846" y="830" type="line"/>
      <point x="1428" y="830"/>
      <point x="1522" y="600"/>
      <point x="1522" y="380" type="curve" smooth="yes"/>
      <point x="1522" y="120"/>
      <point x="1304" y="-20"/>
      <point x="1022" y="-20" type="curve" smooth="yes"/>
      <point x="738" y="-20"/>
      <point x="610" y="128"/>
      <point x="610" y="272" type="curve" smooth="yes"/>
      <point x="610" y="354"/>
      <point x="660" y="402"/>
      <point x="730" y="402" type="curve" smooth="yes"/>
      <point x="790" y="402"/>
      <point x="838" y="362"/>
      <point x="838" y="290" type="curve" smooth="yes"/>
      <point x="838" y="226"/>
      <point x="782" y="180"/>
      <point x="724" y="180" type="curve" smooth="yes"/>
      <point x="673" y="180"/>
      <point x="630" y="219"/>
    </contour>
  </outline>
</glyph>
<glyph name="perthousand" format="2">
  <advance width="2939"/>
  <unicode hex="2030"/>
  <outline>
    <contour>
      <point x="2290" y="420" type="curve" smooth="yes"/>
      <point x="2290" y="216"/>
      <point x="2322" y="-10"/>
      <point x="2470" y="-10" type="curve" smooth="yes"/>
      <point x="2618" y="-10"/>
      <point x="2650" y="216"/>
      <point x="2650" y="420" type="curve" smooth="yes"/>
      <point x="2650" y="624"/>
      <point x="2618" y="851"/>
      <point x="2470" y="851" type="curve" smooth="yes"/>
      <point x="2322" y="851"/>
      <point x="2290" y="624"/>
    </contour>
    <contour>
      <point x="2070" y="420" type="curve" smooth="yes"/>
      <point x="2070" y="706"/>
      <point x="2244" y="860"/>
      <point x="2470" y="860" type="curve" smooth="yes"/>
      <point x="2696" y="860"/>
      <point x="2870" y="706"/>
      <point x="2870" y="420" type="curve" smooth="yes"/>
      <point x="2870" y="134"/>
      <point x="2656" y="-20"/>
      <point x="2470" y="-20" type="curve" smooth="yes"/>
      <point x="2244" y="-20"/>
      <point x="2070" y="134"/>
    </contour>
    <contour>
      <point x="1350" y="420" type="curve" smooth="yes"/>
      <point x="1350" y="216"/>
      <point x="1382" y="-10"/>
      <point x="1530" y="-10" type="curve" smooth="yes"/>
      <point x="1678" y="-10"/>
      <point x="1710" y="216"/>
      <point x="1710" y="420" type="curve" smooth="yes"/>
      <point x="1710" y="624"/>
      <point x="1678" y="851"/>
      <point x="1530" y="851" type="curve" smooth="yes"/>
      <point x="1382" y="851"/>
      <point x="1350" y="624"/>
    </contour>
    <contour>
      <point x="1130" y="420" type="curve" smooth="yes"/>
      <point x="1130" y="706"/>
      <point x="1304" y="860"/>
      <point x="1530" y="860" type="curve" smooth="yes"/>
      <point x="1756" y="860"/>
      <point x="1930" y="706"/>
      <point x="1930" y="420" type="curve" smooth="yes"/>
      <point x="1930" y="134"/>
      <point x="1716" y="-20"/>
      <point x="1530" y="-20" type="curve" smooth="yes"/>
      <point x="1304" y="-20"/>
      <point x="1130" y="134"/>
    </contour>
    <contour>
      <point x="1520" y="1500" type="line"/>
      <point x="1532" y="1500" type="line"/>
      <point x="480" y="0" type="line"/>
      <point x="468" y="0" type="line"/>
    </contour>
    <contour>
      <point x="290" y="1080" type="curve" smooth="yes"/>
      <point x="290" y="876"/>
      <point x="322" y="649"/>
      <point x="470" y="649" type="curve" smooth="yes"/>
      <point x="618" y="649"/>
      <point x="650" y="876"/>
      <point x="650" y="1080" type="curve" smooth="yes"/>
      <point x="650" y="1284"/>
      <point x="618" y="1510"/>
      <point x="470" y="1510" type="curve" smooth="yes"/>
      <point x="322" y="1510"/>
      <point x="290" y="1284"/>
    </contour>
    <contour>
      <point x="70" y="1080" type="curve" smooth="yes"/>
      <point x="70" y="1366"/>
      <point x="244" y="1520"/>
      <point x="470" y="1520" type="curve" smooth="yes"/>
      <point x="696" y="1520"/>
      <point x="870" y="1366"/>
      <point x="870" y="1080" type="curve" smooth="yes"/>
      <point x="870" y="794"/>
      <point x="656" y="640"/>
      <point x="470" y="640" type="curve" smooth="yes"/>
      <point x="244" y="640"/>
      <point x="70" y="794"/>
    </contour>
  </outline>
</glyph>
<glyph name="Euro" format="2">
  <advance width="1419"/>
  <unicode hex="20AC"/>
  <outline>
    <contour>
      <point x="1294" y="1271" type="curve"/>
      <point x="1272" y="1363"/>
      <point x="1140" y="1508"/>
      <point x="938" y="1508" type="curve" smooth="yes"/>
      <point x="600" y="1508"/>
      <point x="480" y="1098"/>
      <point x="480" y="750" type="curve" smooth="yes"/>
      <point x="480" y="362"/>
      <point x="632" y="-6"/>
      <point x="890" y="-6" type="curve" smooth="yes"/>
      <point x="1097" y="-6"/>
      <point x="1246" y="166"/>
      <point x="1296" y="356" type="curve"/>
      <point x="1306" y="356" type="line"/>
      <point x="1254" y="162"/>
      <point x="1108" y="-20"/>
      <point x="866" y="-20" type="curve" smooth="yes"/>
      <point x="564" y="-20"/>
      <point x="250" y="290"/>
      <point x="250" y="750" type="curve" smooth="yes"/>
      <point x="250" y="1170"/>
      <point x="516" y="1520"/>
      <point x="918" y="1520" type="curve" smooth="yes"/>
      <point x="1162" y="1520"/>
      <point x="1310" y="1336"/>
      <point x="1310" y="1232" type="curve" smooth="yes"/>
      <point x="1310" y="1150"/>
      <point x="1256" y="1108"/>
      <point x="1196" y="1108" type="curve" smooth="yes"/>
      <point x="1146" y="1108"/>
      <point x="1082" y="1140"/>
      <point x="1082" y="1220" type="curve" smooth="yes"/>
      <point x="1082" y="1290"/>
      <point x="1138" y="1330"/>
      <point x="1196" y="1330" type="curve" smooth="yes"/>
      <point x="1252" y="1330"/>
      <point x="1286" y="1291"/>
    </contour>
    <component base="equal" xOffset="-60" yOffset="-140"/>
  </outline>
</glyph>
<glyph name="uni2116" format="2">
  <advance width="2180"/>
  <unicode hex="2116"/>
  <outline>
    <contour>
      <point x="1619" y="1140" type="curve" smooth="yes"/>
      <point x="1619" y="912"/>
      <point x="1669" y="769"/>
      <point x="1787" y="769" type="curve" smooth="yes"/>
      <point x="1905" y="769"/>
      <point x="1955" y="912"/>
      <point x="1955" y="1140" type="curve" smooth="yes"/>
      <point x="1955" y="1368"/>
      <point x="1905" y="1510"/>
      <point x="1787" y="1510" type="curve" smooth="yes"/>
      <point x="1669" y="1510"/>
      <point x="1619" y="1368"/>
    </contour>
    <contour>
      <point x="1449" y="1140" type="curve" smooth="yes"/>
      <point x="1449" y="1380"/>
      <point x="1585" y="1520"/>
      <point x="1787" y="1520" type="curve" smooth="yes"/>
      <point x="1989" y="1520"/>
      <point x="2125" y="1380"/>
      <point x="2125" y="1140" type="curve" smooth="yes"/>
      <point x="2125" y="900"/>
      <point x="1989" y="760"/>
      <point x="1787" y="760" type="curve" smooth="yes"/>
      <point x="1585" y="760"/>
      <point x="1449" y="900"/>
    </contour>
    <component base="hyphen" xOffset="1427" yOffset="80"/>
    <component base="N"/>
  </outline>
</glyph>
<glyph name="uniFB00" format="2">
  <advance width="1343"/>
  <unicode hex="FB00"/>
  <outline>
    <contour>
      <point x="56" y="9" type="line"/>
      <point x="1219" y="9" type="line"/>
      <point x="1219" y="0" type="line"/>
      <point x="56" y="0" type="line"/>
    </contour>
    <contour>
      <point x="56" y="920" type="line"/>
      <point x="1259" y="920" type="line"/>
      <point x="1259" y="911" type="line"/>
      <point x="56" y="911" type="line"/>
    </contour>
    <contour>
      <point x="923" y="1227" type="curve"/>
      <point x="916" y="1303"/>
      <point x="823" y="1411"/>
      <point x="670" y="1411" type="curve" smooth="yes"/>
      <point x="508" y="1411"/>
      <point x="416" y="1234"/>
      <point x="416" y="980" type="curve" smooth="yes"/>
      <point x="416" y="0" type="line"/>
      <point x="236" y="0" type="line"/>
      <point x="236" y="924" type="line" smooth="yes"/>
      <point x="236" y="1186"/>
      <point x="408" y="1420"/>
      <point x="670" y="1420" type="curve" smooth="yes"/>
      <point x="833" y="1420"/>
      <point x="938" y="1297"/>
      <point x="938" y="1203" type="curve" smooth="yes"/>
      <point x="938" y="1121"/>
      <point x="884" y="1079"/>
      <point x="824" y="1079" type="curve" smooth="yes"/>
      <point x="774" y="1079"/>
      <point x="712" y="1114"/>
      <point x="712" y="1191" type="curve" smooth="yes"/>
      <point x="712" y="1267"/>
      <point x="767" y="1298"/>
      <point x="826" y="1298" type="curve" smooth="yes"/>
      <point x="869" y="1298"/>
      <point x="908" y="1273"/>
    </contour>
    <contour>
      <point x="1436" y="1347" type="curve"/>
      <point x="1427" y="1424"/>
      <point x="1351" y="1510"/>
      <point x="1202" y="1510" type="curve" smooth="yes"/>
      <point x="1042" y="1510"/>
      <point x="988" y="1334"/>
      <point x="988" y="1080" type="curve" smooth="yes"/>
      <point x="988" y="0" type="line"/>
      <point x="809" y="0" type="line"/>
      <point x="809" y="1024" type="line" smooth="yes"/>
      <point x="809" y="1286"/>
      <point x="942" y="1520"/>
      <point x="1202" y="1520" type="curve" smooth="yes"/>
      <point x="1364" y="1520"/>
      <point x="1448" y="1416"/>
      <point x="1448" y="1322" type="curve" smooth="yes"/>
      <point x="1448" y="1240"/>
      <point x="1394" y="1198"/>
      <point x="1334" y="1198" type="curve" smooth="yes"/>
      <point x="1284" y="1198"/>
      <point x="1222" y="1232"/>
      <point x="1222" y="1309" type="curve" smooth="yes"/>
      <point x="1222" y="1385"/>
      <point x="1277" y="1417"/>
      <point x="1335" y="1417" type="curve" smooth="yes"/>
      <point x="1380" y="1417"/>
      <point x="1421" y="1393"/>
    </contour>
  </outline>
</glyph>
<glyph name="uniFB01" format="2">
  <advance width="1182"/>
  <unicode hex="FB01"/>
  <outline>
    <contour>
      <point x="236" y="1024" type="line" smooth="yes"/>
      <point x="236" y="1286"/>
      <point x="392" y="1520"/>
      <point x="691" y="1520" type="curve" smooth="yes"/>
      <point x="892" y="1520"/>
      <point x="979" y="1418"/>
      <point x="979" y="1303" type="curve" smooth="yes"/>
      <point x="979" y="1221"/>
      <point x="924" y="1179"/>
      <point x="864" y="1179" type="curve" smooth="yes"/>
      <point x="811" y="1179"/>
      <point x="752" y="1217"/>
      <point x="752" y="1288" type="curve" smooth="yes"/>
      <point x="752" y="1360"/>
      <point x="808" y="1399"/>
      <point x="866" y="1399" type="curve" smooth="yes"/>
      <point x="922" y="1399"/>
      <point x="959" y="1363"/>
      <point x="964" y="1327" type="curve"/>
      <point x="958" y="1420"/>
      <point x="881" y="1510"/>
      <point x="691" y="1510" type="curve" smooth="yes"/>
      <point x="473" y="1510"/>
      <point x="416" y="1334"/>
      <point x="416" y="1080" type="curve" smooth="yes"/>
      <point x="416" y="0" type="line"/>
      <point x="236" y="0" type="line"/>
    </contour>
    <contour>
      <point x="56" y="9" type="line"/>
      <point x="1108" y="9" type="line"/>
      <point x="1108" y="0" type="line"/>
      <point x="56" y="0" type="line"/>
    </contour>
    <contour>
      <point x="788" y="911" type="line"/>
      <point x="56" y="911" type="line"/>
      <point x="56" y="920" type="line"/>
      <point x="968" y="920" type="line"/>
      <point x="968" y="0" type="line"/>
      <point x="788" y="0" type="line"/>
    </contour>
  </outline>
</glyph>
<glyph name="uniFB02" format="2">
  <advance width="1211"/>
  <unicode hex="FB02"/>
  <outline>
    <contour>
      <point x="56" y="9" type="line"/>
      <point x="1148" y="9" type="line"/>
      <point x="1148" y="0" type="line"/>
      <point x="56" y="0" type="line"/>
    </contour>
    <contour>
      <point x="56" y="920" type="line"/>
      <point x="687" y="920" type="line"/>
      <point x="687" y="911" type="line"/>
      <point x="56" y="911" type="line"/>
    </contour>
    <contour>
      <point x="825" y="1460" type="line"/>
      <point x="1005" y="1540" type="line"/>
      <point x="1005" y="0" type="line"/>
      <point x="825" y="0" type="line"/>
    </contour>
    <contour>
      <point x="882" y="1330" type="curve"/>
      <point x="876" y="1418"/>
      <point x="801" y="1510"/>
      <point x="649" y="1510" type="curve" smooth="yes"/>
      <point x="452" y="1510"/>
      <point x="416" y="1334"/>
      <point x="416" y="1080" type="curve" smooth="yes"/>
      <point x="416" y="0" type="line"/>
      <point x="236" y="0" type="line"/>
      <point x="236" y="1024" type="line" smooth="yes"/>
      <point x="236" y="1286"/>
      <point x="389" y="1520"/>
      <point x="649" y="1520" type="curve" smooth="yes"/>
      <point x="811" y="1520"/>
      <point x="896" y="1418"/>
      <point x="896" y="1305" type="curve" smooth="yes"/>
      <point x="896" y="1223"/>
      <point x="841" y="1181"/>
      <point x="781" y="1181" type="curve" smooth="yes"/>
      <point x="731" y="1181"/>
      <point x="669" y="1209"/>
      <point x="669" y="1289" type="curve" smooth="yes"/>
      <point x="669" y="1369"/>
      <point x="726" y="1401"/>
      <point x="792" y="1401" type="curve" smooth="yes"/>
      <point x="852" y="1401"/>
      <point x="876" y="1343"/>
    </contour>
  </outline>
</glyph>
<glyph name="uniFB03" format="2">
  <advance width="1755"/>
  <unicode hex="FB03"/>
  <outline>
    <contour>
      <point x="809" y="1025" type="line" smooth="yes"/>
      <point x="809" y="1287"/>
      <point x="965" y="1520"/>
      <point x="1264" y="1520" type="curve" smooth="yes"/>
      <point x="1465" y="1520"/>
      <point x="1549" y="1418"/>
      <point x="1549" y="1303" type="curve" smooth="yes"/>
      <point x="1549" y="1221"/>
      <point x="1496" y="1179"/>
      <point x="1436" y="1179" type="curve" smooth="yes"/>
      <point x="1383" y="1179"/>
      <point x="1324" y="1217"/>
      <point x="1324" y="1288" type="curve" smooth="yes"/>
      <point x="1324" y="1360"/>
      <point x="1380" y="1399"/>
      <point x="1438" y="1399" type="curve" smooth="yes"/>
      <point x="1493" y="1399"/>
      <point x="1532" y="1363"/>
      <point x="1537" y="1327" type="curve"/>
      <point x="1531" y="1419"/>
      <point x="1454" y="1511"/>
      <point x="1264" y="1511" type="curve" smooth="yes"/>
      <point x="1047" y="1511"/>
      <point x="988" y="1338"/>
      <point x="988" y="1081" type="curve" smooth="yes"/>
      <point x="988" y="0" type="line"/>
      <point x="809" y="0" type="line"/>
    </contour>
    <contour>
      <point x="56" y="9" type="line"/>
      <point x="1680" y="9" type="line"/>
      <point x="1680" y="0" type="line"/>
      <point x="56" y="0" type="line"/>
    </contour>
    <contour>
      <point x="236" y="924" type="line" smooth="yes"/>
      <point x="236" y="1184"/>
      <point x="407" y="1420"/>
      <point x="670" y="1420" type="curve" smooth="yes"/>
      <point x="833" y="1420"/>
      <point x="938" y="1298"/>
      <point x="938" y="1203" type="curve" smooth="yes"/>
      <point x="938" y="1121"/>
      <point x="884" y="1079"/>
      <point x="824" y="1079" type="curve" smooth="yes"/>
      <point x="774" y="1079"/>
      <point x="712" y="1114"/>
      <point x="712" y="1191" type="curve" smooth="yes"/>
      <point x="712" y="1267"/>
      <point x="768" y="1299"/>
      <point x="826" y="1299" type="curve" smooth="yes"/>
      <point x="871" y="1299"/>
      <point x="909" y="1273"/>
      <point x="924" y="1226" type="curve"/>
      <point x="916" y="1303"/>
      <point x="823" y="1411"/>
      <point x="670" y="1411" type="curve" smooth="yes"/>
      <point x="507" y="1411"/>
      <point x="416" y="1234"/>
      <point x="416" y="980" type="curve" smooth="yes"/>
      <point x="416" y="0" type="line"/>
      <point x="236" y="0" type="line"/>
    </contour>
    <contour>
      <point x="1360" y="911" type="line"/>
      <point x="56" y="911" type="line"/>
      <point x="56" y="920" type="line"/>
      <point x="1540" y="920" type="line"/>
      <point x="1540" y="0" type="line"/>
      <point x="1360" y="0" type="line"/>
    </contour>
  </outline>
</glyph>
<glyph name="uniFB04" format="2">
  <advance width="1779"/>
  <unicode hex="FB04"/>
  <outline>
    <contour>
      <point x="56" y="9" type="line"/>
      <point x="1718" y="9" type="line"/>
      <point x="1718" y="0" type="line"/>
      <point x="56" y="0" type="line"/>
    </contour>
    <contour>
      <point x="56" y="920" type="line"/>
      <point x="1256" y="920" type="line"/>
      <point x="1256" y="911" type="line"/>
      <point x="56" y="911" type="line"/>
    </contour>
    <contour>
      <point x="1394" y="1460" type="line"/>
      <point x="1574" y="1540" type="line"/>
      <point x="1574" y="0" type="line"/>
      <point x="1394" y="0" type="line"/>
    </contour>
    <contour>
      <point x="920" y="1227" type="curve"/>
      <point x="912" y="1304"/>
      <point x="821" y="1411"/>
      <point x="668" y="1411" type="curve" smooth="yes"/>
      <point x="507" y="1411"/>
      <point x="416" y="1234"/>
      <point x="416" y="980" type="curve" smooth="yes"/>
      <point x="416" y="0" type="line"/>
      <point x="236" y="0" type="line"/>
      <point x="236" y="924" type="line" smooth="yes"/>
      <point x="236" y="1186"/>
      <point x="407" y="1420"/>
      <point x="668" y="1420" type="curve" smooth="yes"/>
      <point x="831" y="1420"/>
      <point x="935" y="1297"/>
      <point x="935" y="1203" type="curve" smooth="yes"/>
      <point x="935" y="1121"/>
      <point x="881" y="1079"/>
      <point x="821" y="1079" type="curve" smooth="yes"/>
      <point x="771" y="1079"/>
      <point x="708" y="1114"/>
      <point x="708" y="1191" type="curve" smooth="yes"/>
      <point x="708" y="1267"/>
      <point x="765" y="1298"/>
      <point x="823" y="1298" type="curve" smooth="yes"/>
      <point x="868" y="1298"/>
      <point x="905" y="1273"/>
    </contour>
    <contour>
      <point x="1450" y="1329" type="curve"/>
      <point x="1446" y="1414"/>
      <point x="1372" y="1510"/>
      <point x="1218" y="1510" type="curve" smooth="yes"/>
      <point x="1021" y="1510"/>
      <point x="985" y="1334"/>
      <point x="985" y="1080" type="curve" smooth="yes"/>
      <point x="985" y="0" type="line"/>
      <point x="805" y="0" type="line"/>
      <point x="805" y="1024" type="line" smooth="yes"/>
      <point x="805" y="1286"/>
      <point x="958" y="1520"/>
      <point x="1218" y="1520" type="curve" smooth="yes"/>
      <point x="1380" y="1520"/>
      <point x="1464" y="1418"/>
      <point x="1464" y="1305" type="curve" smooth="yes"/>
      <point x="1464" y="1223"/>
      <point x="1410" y="1181"/>
      <point x="1350" y="1181" type="curve" smooth="yes"/>
      <point x="1300" y="1181"/>
      <point x="1238" y="1209"/>
      <point x="1238" y="1289" type="curve" smooth="yes"/>
      <point x="1238" y="1369"/>
      <point x="1294" y="1400"/>
      <point x="1360" y="1400" type="curve" smooth="yes"/>
      <point x="1420" y="1400"/>
      <point x="1442" y="1341"/>
    </contour>
  </outline>
</glyph>
<glyph name="J.alt" format="2">
  <advance width="1081"/>
  <outline>
    <contour>
      <point x="422" y="1500" type="line"/>
      <point x="1052" y="1500" type="line"/>
      <point x="1052" y="1491" type="line"/>
      <point x="422" y="1491" type="line"/>
    </contour>
    <contour>
      <point x="662" y="1500" type="line"/>
      <point x="852" y="1500" type="line"/>
      <point x="852" y="560" type="line" smooth="yes"/>
      <point x="852" y="240"/>
      <point x="694" y="-20"/>
      <point x="372" y="-20" type="curve" smooth="yes"/>
      <point x="138" y="-20"/>
      <point x="40" y="150"/>
      <point x="40" y="290" type="curve" smooth="yes"/>
      <point x="40" y="414"/>
      <point x="114" y="480"/>
      <point x="194" y="480" type="curve" smooth="yes"/>
      <point x="264" y="480"/>
      <point x="326" y="444"/>
      <point x="326" y="352" type="curve" smooth="yes"/>
      <point x="326" y="282"/>
      <point x="259" y="226"/>
      <point x="191" y="226" type="curve" smooth="yes"/>
      <point x="132" y="226"/>
      <point x="61" y="252"/>
      <point x="50" y="303" type="curve"/>
      <point x="42" y="141"/>
      <point x="160" y="-10"/>
      <point x="372" y="-10" type="curve" smooth="yes"/>
      <point x="614" y="-10"/>
      <point x="662" y="220"/>
      <point x="662" y="500" type="curve" smooth="yes"/>
    </contour>
  </outline>
</glyph>
<glyph name="R.alt" format="2">
  <advance width="1353"/>
  <outline>
    <contour>
      <point x="701" y="766" type="curve" smooth="yes"/>
      <point x="401" y="766" type="line"/>
      <point x="401" y="773" type="line"/>
      <point x="701" y="773" type="line" smooth="yes"/>
      <point x="893" y="773"/>
      <point x="1000" y="910"/>
      <point x="1000" y="1128" type="curve" smooth="yes"/>
      <point x="1000" y="1346"/>
      <point x="893" y="1491"/>
      <point x="701" y="1491" type="curve" smooth="yes"/>
      <point x="41" y="1491" type="line"/>
      <point x="41" y="1500" type="line"/>
      <point x="701" y="1500" type="line" smooth="yes"/>
      <point x="1003" y="1500"/>
      <point x="1201" y="1388"/>
      <point x="1201" y="1128" type="curve" smooth="yes"/>
      <point x="1201" y="868"/>
      <point x="1023" y="766"/>
    </contour>
    <contour>
      <point x="41" y="9" type="line"/>
      <point x="670" y="9" type="line"/>
      <point x="670" y="0" type="line"/>
      <point x="41" y="0" type="line"/>
    </contour>
    <contour>
      <point x="260" y="1500" type="line"/>
      <point x="451" y="1500" type="line"/>
      <point x="451" y="0" type="line"/>
      <point x="260" y="0" type="line"/>
    </contour>
    <contour>
      <point x="1331" y="0" type="line"/>
      <point x="1299" y="0"/>
      <point x="1263" y="0"/>
      <point x="1191" y="0" type="curve" smooth="yes"/>
      <point x="725" y="0"/>
      <point x="1163" y="763"/>
      <point x="691" y="763" type="curve" smooth="yes"/>
      <point x="401" y="763" type="line"/>
      <point x="401" y="771" type="line"/>
      <point x="731" y="771" type="line" smooth="yes"/>
      <point x="1417" y="771"/>
      <point x="1034" y="9"/>
      <point x="1260" y="9" type="curve" smooth="yes"/>
      <point x="1302" y="9"/>
      <point x="1303" y="9"/>
      <point x="1331" y="9" type="curve"/>
    </contour>
  </outline>
</glyph>
<glyph name="fj.lig" format="2">
  <advance width="1120"/>
  <outline>
    <contour>
      <point x="56" y="9" type="line"/>
      <point x="606" y="9" type="line"/>
      <point x="606" y="0" type="line"/>
      <point x="56" y="0" type="line"/>
    </contour>
    <contour>
      <point x="946" y="-24" type="line" smooth="yes"/>
      <point x="946" y="-286"/>
      <point x="892" y="-520"/>
      <point x="632" y="-520" type="curve" smooth="yes"/>
      <point x="470" y="-520"/>
      <point x="386" y="-416"/>
      <point x="386" y="-302" type="curve" smooth="yes"/>
      <point x="386" y="-220"/>
      <point x="440" y="-178"/>
      <point x="500" y="-178" type="curve" smooth="yes"/>
      <point x="550" y="-178"/>
      <point x="612" y="-206"/>
      <point x="612" y="-286" type="curve" smooth="yes"/>
      <point x="612" y="-366"/>
      <point x="555" y="-398"/>
      <point x="488" y="-398" type="curve" smooth="yes"/>
      <point x="446" y="-398"/>
      <point x="402" y="-362"/>
      <point x="397" y="-326" type="curve"/>
      <point x="406" y="-427"/>
      <point x="493" y="-509"/>
      <point x="622" y="-509" type="curve" smooth="yes"/>
      <point x="802" y="-509"/>
      <point x="766" y="-214"/>
      <point x="766" y="40" type="curve" smooth="yes"/>
      <point x="766" y="911" type="line"/>
      <point x="56" y="911" type="line"/>
      <point x="56" y="920" type="line"/>
      <point x="946" y="920" type="line"/>
    </contour>
    <contour>
      <point x="943" y="1328" type="curve"/>
      <point x="940" y="1411"/>
      <point x="867" y="1510"/>
      <point x="669" y="1510" type="curve" smooth="yes"/>
      <point x="471" y="1510"/>
      <point x="416" y="1334"/>
      <point x="416" y="1080" type="curve" smooth="yes"/>
      <point x="416" y="0" type="line"/>
      <point x="236" y="0" type="line"/>
      <point x="236" y="1024" type="line" smooth="yes"/>
      <point x="236" y="1286"/>
      <point x="369" y="1520"/>
      <point x="669" y="1520" type="curve" smooth="yes"/>
      <point x="871" y="1520"/>
      <point x="956" y="1417"/>
      <point x="956" y="1303" type="curve" smooth="yes"/>
      <point x="956" y="1221"/>
      <point x="902" y="1179"/>
      <point x="842" y="1179" type="curve" smooth="yes"/>
      <point x="792" y="1179"/>
      <point x="730" y="1208"/>
      <point x="730" y="1288" type="curve" smooth="yes"/>
      <point x="730" y="1366"/>
      <point x="792" y="1399"/>
      <point x="845" y="1399" type="curve" smooth="yes"/>
      <point x="903" y="1399"/>
      <point x="934" y="1363"/>
    </contour>
  </outline>
</glyph>
<glyph name="four.alt" format="2">
  <advance width="1189"/>
  <outline>
    <contour>
      <point x="1060" y="9" type="line"/>
      <point x="1060" y="0" type="line"/>
      <point x="530" y="0" type="line"/>
      <point x="530" y="9" type="line"/>
    </contour>
    <contour>
      <point x="910" y="996" type="curve"/>
      <point x="910" y="-1" type="line"/>
      <point x="720" y="-1" type="line"/>
      <point x="720" y="956" type="line"/>
      <point x="780" y="956"/>
      <point x="870" y="976"/>
    </contour>
    <contour>
      <point x="45" y="378" type="curve"/>
      <point x="1090" y="378" type="line"/>
      <point x="1090" y="369" type="line"/>
      <point x="30" y="369" type="line"/>
      <point x="310" y="769"/>
      <point x="640" y="1200"/>
      <point x="680" y="1500" type="curve"/>
      <point x="876" y="1500" type="line"/>
      <point x="838" y="1210"/>
      <point x="327" y="766"/>
    </contour>
  </outline>
</glyph>
